<svg xmlns="http://www.w3.org/2000/svg" style="height: 0; width: 0; position: absolute;"><symbol id="straw" viewBox="0 0 16 16"><g class="nc-icon-wrapper"><path d="M2 4h12" stroke="currentColor" fill="none"></path><path d="M6 12h4" stroke="currentColor" fill="none"></path><path d="M4 8h8" stroke="currentColor" fill="none"></path></g></symbol><symbol id="send--fill" viewBox="0 0 16 16"><g class="nc-icon-wrapper"><path fill-rule="evenodd" clip-rule="evenodd" d="M2.757 5.668l9.625-3.357a1 1 0 0 1 1.274 1.273l-3.358 9.625c-.284.816-1.4.912-1.818.157L6.72 10.2l2.205-2.205a.675.675 0 1 0-.954-.955L5.766 9.245 2.601 7.487c-.755-.42-.66-1.534.156-1.819z" fill="currentColor" stroke="none"></path></g></symbol><symbol id="search" viewBox="0 0 16 16"><g class="nc-icon-wrapper"><path fill-rule="evenodd" clip-rule="evenodd" d="M10 7a3 3 0 1 1-6 0 3 3 0 0 1 6 0zm-.547 3.16a4 4 0 1 1 .707-.707c-.16.047-.299.342-.299.342s-.361.205-.408.365zm0 0c.264-.205.502-.443.707-.707l2.694 2.693a.5.5 0 0 1-.708.708L9.453 10.16z" fill="currentColor" stroke="none"></path><path d="M9.861 9.795s.139-.295.299-.342a4.022 4.022 0 0 1-.707.707c.047-.16.408-.365.408-.365z" fill="currentColor" stroke="none"></path></g></symbol><symbol id="project" viewBox="0 0 16 16"><g class="nc-icon-wrapper"><rect x="2.5" y="2.5" width="4" height="4" rx="2" stroke="currentColor" fill="none"></rect><rect x="2.5" y="9.5" width="4" height="4" rx="2" stroke="currentColor" fill="none"></rect><rect x="9.5" y="2.5" width="4" height="4" rx="2" stroke="currentColor" fill="none"></rect><rect x="9.5" y="9.5" width="4" height="4" rx="2" stroke="currentColor" fill="none"></rect></g></symbol><symbol id="shop" viewBox="0 0 16 16"><g class="nc-icon-wrapper"><path d="M2.357 6.875A2.5 2.5 0 0 1 4.854 4.5h6.292a2.5 2.5 0 0 1 2.497 2.375l.2 4a2.5 2.5 0 0 1-2.497 2.625H4.654a2.5 2.5 0 0 1-2.497-2.625l.2-4z" stroke="currentColor" fill="none"></path><path d="M5.5 4A1.5 1.5 0 0 1 7 2.5h2A1.5 1.5 0 0 1 10.5 4v.5h-5V4z" stroke="currentColor" fill="none"></path><path d="M6 6.5c0 .667.4 2 2 2s2-1.333 2-2" stroke="currentColor" fill="none"></path></g></symbol><symbol id="roundchart--fill" viewBox="0 0 16 16"><g class="nc-icon-wrapper"><path fill-rule="evenodd" clip-rule="evenodd" d="M9.919 3.487a5.5 5.5 0 0 0-1-.092v5.5h-5.5a5.5 5.5 0 1 0 6.5-5.408z" fill="currentColor" stroke="none"></path><path d="M2 7.5A5.5 5.5 0 0 1 7.5 2v5.5H2z" fill="currentColor" stroke="none"></path></g></symbol><symbol id="send" viewBox="0 0 16 16"><g class="nc-icon-wrapper"><path fill-rule="evenodd" clip-rule="evenodd" d="M5.645 10.322l1.96 3.53c.84 1.509 3.068 1.317 3.637-.313L14.6 3.914c.551-1.58-.967-3.099-2.547-2.547L2.428 4.724C.797 5.293.605 7.522 2.115 8.361l3.53 1.96zm6.737-8.011L2.757 5.668c-.815.285-.911 1.4-.156 1.819l3.165 1.758L7.971 7.04a.675.675 0 0 1 .955.955L6.721 10.2l1.759 3.166c.419.755 1.534.659 1.818-.157l3.357-9.625a1 1 0 0 0-1.273-1.273z" fill="currentColor" stroke="none"></path></g></symbol><symbol id="search--fill" viewBox="0 0 16 16"><g class="nc-icon-wrapper"><path fill-rule="evenodd" clip-rule="evenodd" d="M9.453 10.16a4 4 0 1 1 .707-.707c-.16.047-.299.342-.299.342s-.361.205-.408.365zm0 0c.264-.205.502-.443.707-.707l2.694 2.693a.5.5 0 0 1-.708.708L9.453 10.16z" fill="currentColor" stroke="none"></path><path d="M9.861 9.795s.139-.295.299-.342a4.022 4.022 0 0 1-.707.707c.047-.16.408-.365.408-.365z" fill="currentColor" stroke="none"></path></g></symbol><symbol id="round" viewBox="0 0 16 16"><g class="nc-icon-wrapper"><path fill-rule="evenodd" clip-rule="evenodd" d="M8 12a4 4 0 1 0 0-8 4 4 0 0 0 0 8zm0 1A5 5 0 1 0 8 3a5 5 0 0 0 0 10z" fill="currentColor" stroke="none"></path></g></symbol><symbol id="screen" viewBox="0 0 16 16"><g class="nc-icon-wrapper"><rect x="2.5" y="2.5" width="11" height="8" rx="1.5" stroke="currentColor" fill="none"></rect><path d="M11.5 13.076c0 .234-.19.424-.424.424H4.924a.424.424 0 0 1-.23-.78l2.495-1.604a1.5 1.5 0 0 1 1.622 0l2.494 1.603a.424.424 0 0 1 .195.357z" stroke="currentColor" fill="none"></path></g></symbol><symbol id="round--fill" viewBox="0 0 16 16"><g class="nc-icon-wrapper"><circle cx="8" cy="8" r="4.5" fill="currentColor" stroke="currentColor"></circle></g></symbol><symbol id="pencil" viewBox="0 0 16 16"><g class="nc-icon-wrapper"><path d="M10.29 2.623a.488.488 0 0 1 .69.009l2.247 2.293a.513.513 0 0 1 0 .714L5.625 13.4a.49.49 0 0 1-.358.149l-2.285-.037a.5.5 0 0 1-.487-.505v-2.574a.51.51 0 0 1 .153-.365l7.641-7.444z" stroke="currentColor" fill="none"></path><path d="M8.908 4.552l2.62 2.674" stroke="currentColor" fill="none"></path></g></symbol><symbol id="roundchart" viewBox="0 0 16 16"><g class="nc-icon-wrapper"><path d="M8.919 9.395h.5V3.92a5.002 5.002 0 0 1 4.404 5.95 5 5 0 0 1-9.88-.475H8.92zM2.88 5.587l-.457-.19.457.19A5 5 0 0 1 7 2.525V7H2.525a5 5 0 0 1 .356-1.413z" stroke="currentColor" fill="none"></path></g></symbol><symbol id="panel--fill" viewBox="0 0 16 16"><g class="nc-icon-wrapper"><path fill-rule="evenodd" clip-rule="evenodd" d="M6.5 3H12a1 1 0 0 1 1 1v8a1 1 0 0 1-1 1H6.5V3zM12 2a2 2 0 0 1 2 2v8a2 2 0 0 1-2 2H4a2 2 0 0 1-2-2V4a2 2 0 0 1 2-2h8z" fill="currentColor" stroke="none"></path></g></symbol><symbol id="rocket" viewBox="0 0 16 16"><g class="nc-icon-wrapper"><path d="M4.646 7.987A21.905 21.905 0 0 1 6.2 5.695c.568-.73 1.233-1.471 1.954-2.075.724-.606 1.48-1.05 2.23-1.224.853-.196 2.098-.142 2.916-.07a.406.406 0 0 1 .373.373c.072.817.126 2.064-.07 2.916-.173.75-.618 1.506-1.224 2.23-.604.721-1.345 1.386-2.075 1.954a21.909 21.909 0 0 1-2.292 1.555 10.615 10.615 0 0 0-.165-.43c-.223-.547-.572-1.264-1.04-1.732-.468-.468-1.185-.817-1.732-1.04-.153-.063-.3-.118-.43-.165z" stroke="currentColor" fill="none"></path><path d="M11.042 11.674a.5.5 0 0 0 .1-.633l-.801-1.334-2.307 1.538.229 1.824a.5.5 0 0 0 .825.315l1.954-1.71z" stroke="currentColor" fill="none"></path><path d="M4.228 4.909a.5.5 0 0 1 .639-.056l1.276.89L4.45 7.937l-1.805-.352a.5.5 0 0 1-.257-.845L4.228 4.91z" stroke="currentColor" fill="none"></path><circle cx="11" cy="5" r="1" fill="currentColor" stroke="none"></circle><path d="M5.972 11.71c-.488.488-2.163 1.372-2.651.884-.489-.489.395-2.164.884-2.652a1.25 1.25 0 0 1 1.767 1.768z" fill="currentColor" stroke="none"></path></g></symbol><symbol id="reject" viewBox="0 0 16 16"><g class="nc-icon-wrapper"><path d="M6.852 10.772a2.999 2.999 0 0 1-.973-.65l4.242-4.243a3 3 0 0 1-3.27 4.893z" fill="currentColor" stroke="none"></path><path fill-rule="evenodd" clip-rule="evenodd" d="M8 14A6 6 0 1 1 8 2a6 6 0 0 1 0 12zm0-1.5a4.5 4.5 0 1 1 0-9 4.5 4.5 0 0 1 0 9z" fill="currentColor" stroke="none"></path></g></symbol><symbol id="regex" viewBox="0 0 16 16"><g class="nc-icon-wrapper"><path d="M2.003 13.271V3.415h2.068v.715H2.872v8.426h1.199v.715H2.003z" fill="currentColor" stroke="none"></path><path d="M5.214 11.5v-1.155h1.078V11.5H5.214z" fill="currentColor" stroke="none"></path><path d="M9.156 7.837l.12-1.507-1.165.858-.374-.649 1.287-.638-1.287-.66.374-.638 1.166.869-.121-1.529h.737l-.121 1.529 1.166-.869.374.638-1.298.66 1.298.638-.374.649-1.166-.858.12 1.507h-.736z" fill="currentColor" stroke="none"></path><path d="M13.998 3.415v9.856H11.93v-.715h1.2V4.13h-1.2v-.715h2.068z" fill="currentColor" stroke="none"></path></g></symbol><symbol id="puzzle" viewBox="0 0 16 16"><g class="nc-icon-wrapper"><path fill-rule="evenodd" clip-rule="evenodd" d="M13 2h-2a1 1 0 0 0-1 1v2a1 1 0 0 0 1 1h2a1 1 0 0 0 1-1V3a1 1 0 0 0-1-1zm-2-1a2 2 0 0 0-2 2v2a2 2 0 0 0 2 2h2a2 2 0 0 0 2-2V3a2 2 0 0 0-2-2h-2z" fill="currentColor" stroke="none"></path><path fill-rule="evenodd" clip-rule="evenodd" d="M11 9H8v4h3a1 1 0 0 0 1-1v-2a1 1 0 0 0-1-1zM7 8v6h4a2 2 0 0 0 2-2v-2a2 2 0 0 0-2-2H7z" fill="currentColor" stroke="none"></path><path fill-rule="evenodd" clip-rule="evenodd" d="M7 9H3v3a1 1 0 0 0 1 1h3V9zM2 8v4a2 2 0 0 0 2 2h4V8H2z" fill="currentColor" stroke="none"></path><path fill-rule="evenodd" clip-rule="evenodd" d="M6 4H4a1 1 0 0 0-1 1v3h4V5a1 1 0 0 0-1-1zM4 3a2 2 0 0 0-2 2v4h6V5a2 2 0 0 0-2-2H4z" fill="currentColor" stroke="none"></path></g></symbol><symbol id="plus" viewBox="0 0 16 16"><g class="nc-icon-wrapper"><path fill-rule="evenodd" clip-rule="evenodd" d="M3.257 8a.5.5 0 0 1 .5-.5H7.5V3.757a.5.5 0 1 1 1 0V7.5h3.743a.5.5 0 1 1 0 1H8.5v3.743a.5.5 0 1 1-1 0V8.5H3.757a.5.5 0 0 1-.5-.5z" fill="currentColor" stroke="none"></path></g></symbol><symbol id="page--fill" viewBox="0 0 16 16"><g class="nc-icon-wrapper"><path fill-rule="evenodd" clip-rule="evenodd" d="M3 4a2 2 0 0 1 2-2h6a2 2 0 0 1 2 2v8a2 2 0 0 1-2 2H5a2 2 0 0 1-2-2V4zm2.75.25a.75.75 0 0 0 0 1.5h4.5a.75.75 0 0 0 0-1.5h-4.5zM5 8a.75.75 0 0 1 .75-.75h4.5a.75.75 0 0 1 0 1.5h-4.5A.75.75 0 0 1 5 8zm.75 2.25a.75.75 0 0 0 0 1.5h4.5a.75.75 0 0 0 0-1.5h-4.5z" fill="currentColor" stroke="none"></path></g></symbol><symbol id="progress" viewBox="0 0 16 16"><g class="nc-icon-wrapper"><path d="M9.148 10.772A3 3 0 0 1 8 11V5a3 3 0 0 1 1.148 5.772z" fill="currentColor" stroke="none"></path><path fill-rule="evenodd" clip-rule="evenodd" d="M8 14A6 6 0 1 1 8 2a6 6 0 0 1 0 12zm0-1.5a4.5 4.5 0 1 1 0-9 4.5 4.5 0 0 1 0 9z" fill="currentColor" stroke="none"></path></g></symbol><symbol id="picture" viewBox="0 0 16 16"><g class="nc-icon-wrapper"><path d="M11 7a1 1 0 1 0 0-2 1 1 0 0 0 0 2z" fill="currentColor" stroke="none"></path><path fill-rule="evenodd" clip-rule="evenodd" d="M4 13a2 2 0 0 1-2-2V5a2 2 0 0 1 2-2h8a2 2 0 0 1 2 2v6a2 2 0 0 1-2 2H4zm8-1H4a1 1 0 0 1-1-1v-.785c.233-.494.7-1.108 1.366-1.45.672-.344 1.617-.448 2.886.277 2.372 1.356 4.486 1.027 5.748.445V11a1 1 0 0 1-1 1zM3 5v3.532a3.82 3.82 0 0 1 .91-.657c1.002-.513 2.307-.576 3.838.299 2.397 1.37 4.409.722 5.252.178V5a1 1 0 0 0-1-1H4a1 1 0 0 0-1 1z" fill="currentColor" stroke="none"></path></g></symbol><symbol id="map--fill" viewBox="0 0 16 16"><g class="nc-icon-wrapper"><path fill-rule="evenodd" clip-rule="evenodd" d="M5.186 13.543a1 1 0 0 1-1.732-.385l-1.549-5.78a1 1 0 0 1 .2-.901l2.31-2.75a1 1 0 0 1 1.167-.274L8.53 4.745 10.82 2.3a1 1 0 0 1 1.696.425l1.56 5.824a1 1 0 0 1-.236.943l-2.709 2.893a1 1 0 0 1-1.131.232l-2.951-1.292-1.862 2.218zm2.12-3.028l2.583 1.131-1.634-6.1-2.583-1.13 1.634 6.099z" fill="currentColor" stroke="none"></path></g></symbol><symbol id="paperclip" viewBox="0 0 16 16"><g class="nc-icon-wrapper"><path fill-rule="evenodd" clip-rule="evenodd" d="M13.547 5.758c.098-.603-.028-1.325-.762-2.058-.74-.74-1.452-.877-2.034-.795a2.61 2.61 0 0 0-1.409.702L9.25 3.7 4.654 8.296l-.354.353c-.083.083-.183.176-.284.27l-.04.036c-.117.109-.241.224-.366.349a4.106 4.106 0 0 0-.651.805c-.164.281-.242.548-.22.806.02.25.141.557.5.916.093.093.423.306.879.341.424.033.99-.087 1.596-.694l.002-.002.002-.002.002-.001.002-.002.001-.002.002-.002.003-.002.002-.002.002-.003.002-.002.003-.002.002-.003.002-.002.003-.003.002-.002.003-.003.003-.003.003-.002.002-.003.003-.003.003-.003.003-.003.003-.003.003-.003.004-.004.003-.003.003-.003.004-.003.003-.004.004-.003.003-.004.004-.004.003-.003.004-.004.004-.004.004-.004.004-.004.004-.003.004-.004.004-.005.004-.004.004-.004.004-.004.005-.004.004-.005.004-.004.005-.005.004-.004.005-.005.005-.004.004-.005.005-.005.005-.005.005-.005.005-.005.005-.004.005-.005.005-.006.005-.005.005-.005.005-.005.006-.005.005-.006.005-.005.006-.006.005-.005.006-.006.006-.005.005-.006.006-.006.006-.005.006-.006.005-.006.006-.006.006-.006.006-.006.006-.006.006-.006.007-.006.006-.007.006-.006.006-.006.007-.007.006-.006.007-.007.006-.006.007-.007.006-.006.007-.007.007-.007.006-.006.007-.007.007-.007.007-.007.007-.007.007-.007.007-.007.007-.007.007-.007.007-.007.008-.007.007-.008.007-.007.007-.007.008-.008.007-.007.008-.008.007-.007.008-.008.007-.007.008-.008.008-.008.008-.007.007-.008.008-.008.008-.008.008-.008.008-.008.008-.008.008-.008.008-.008.008-.008.008-.008.008-.008.009-.008.008-.009.008-.008.009-.008.008-.009.008-.008.009-.009.008-.008.01-.009.008-.008.008-.01.009-.008.009-.008.008-.01.01-.008.008-.009.009-.009.009-.009.009-.008.009-.01.009-.008.009-.01.009-.009.009-.009.01-.009.008-.01.01-.008.009-.01.01-.009.008-.01.01-.009.01-.009.009-.01.01-.009.009-.01.01-.009.009-.01.01-.01.009-.009.01-.01.01-.01.01-.009.009-.01.01-.01.01-.01.01-.01.01-.009.01-.01.01-.01.01-.01.01-.01.01-.01.01-.01.01-.01.01-.01.01-.01.01-.01.01-.01.01-.011.01-.01.01-.01.011-.011.01-.01.011-.01.01-.011.01-.01.011-.011.01-.01.011-.011.01-.01.012-.011.01-.01.01-.012.011-.01.011-.01.01-.012.012-.01.01-.011.011-.01.011-.012.01-.01.012-.012.01-.01.011-.011.011-.011.011-.011.011-.011.011-.011.011-.011.011-.011.012-.011.01-.011.012-.012.01-.01.012-.012.011-.011.011-.011.012-.011.011-.012.011-.011.012-.011.01-.012.012-.011.012-.011.01-.012.012-.011.012-.011.011-.012.012-.011.011-.012.012-.011.011-.012.012-.011.011-.012.012-.011.011-.012.012-.012.011-.011.012-.012.012-.012.011-.011.012-.012.012-.012.012-.011.011-.012.012-.012.012-.012.012-.011.011-.012.012-.012.012-.012.012-.012.012-.011.012-.012.011-.012.012-.012.012-.012.012-.012.012-.012.012-.012.012-.012.012-.012.012-.012.012-.012.012-.012.012-.012.012-.012.012-.012.012-.012.012-.012.012-.012.012-.012.012-.012.012-.012.013-.012.012-.012.012-.013.012-.012.012-.012.012-.012.012-.012.013-.012.012-.013.012-.012.012-.012.012-.012.013-.012.012-.013.012-.012.012-.012L8.192 9l.012-.013.012-.012.012-.012.013-.012.012-.013.012-.012.012-.012.013-.013.012-.012.012-.012.013-.012.012-.013.012-.012.013-.012.012-.013.012-.012.013-.012.012-.013.012-.012.013-.012.012-.013.012-.012.013-.012.012-.013.012-.012.013-.012.012-.013.012-.012.013-.013.012-.012.012-.012.013-.013.012-.012.012-.012.013-.013.012-.012.013-.012.012-.013.012-.012.013-.012.012-.013.012-.012.013-.012.012-.013.012-.012.013-.012.012-.013.012-.012.013-.012.012-.013.012-.012.013-.012.012-.013.012-.012.013-.012.012-.013.012-.012.012-.012.013-.013.012-.012.012-.012.013-.012.012-.013.012-.012.012-.012.013-.012.012-.013.012-.012.012-.012.013-.012.012-.013.012-.012.012-.012.012-.012.013-.012.012-.013.012-.012.012-.012.012-.012.012-.012.012-.012.013-.012.012-.013.012-.012.012-.012.012-.012.012-.012.012-.012.012-.012.012-.012.012-.012.012-.012.012-.012.012-.012.012-.012.012-.012.012-.012.012-.012.012-.012.012-.012.012-.012.012-.011.012-.012.011-.012.012-.012.012-.012.012-.012.012-.011.011-.012.012-.012.012-.012.012-.012.011-.011.012-.012.012-.012.012-.011.011-.012.012-.012.011-.011.012-.012.012-.011.011-.012.012-.012.011-.011.012-.012.011-.011.012-.012.011-.011.012-.012.011-.01.012-.012.01-.012.012-.011.012-.011.011-.012.011-.011.012-.011.01-.012.012-.01.011-.012.011-.011.012-.011.01-.012.012-.01.011-.012.011-.011.011-.011.011-.011.011-.011.011-.011.011-.011.011-.011.011-.011.011-.01.011-.012.01-.01.012-.011.01-.011.011-.011.011-.01.01-.012.011-.01.011-.01.01-.012.011-.01.011-.01.01-.011.011-.01.01-.011.011-.01.01-.011.011-.01.01-.011.01-.01.011-.011.01-.01.01-.01.011-.01.01-.011.01-.01.01-.01.01-.01.011-.01.01-.01.01-.011.01-.01.01-.01.01-.01.01-.01.01-.01.01-.01.01-.01.01-.01.01-.01.01-.009.009-.01.01-.01.01-.009.009-.01.01-.01.009-.009.01-.01.009-.009.01-.01.009-.009.01-.009.009-.01.009-.009.01-.009.008-.01.01-.008.009-.01.009-.009.009-.009.01-.009.008-.009.01-.009c.138-.139.192-.251.2-.33.006-.05.004-.172-.2-.377-.226-.226-.516-.192-.708 0l-4.95 4.95a.5.5 0 1 1-.707-.707l4.95-4.95c.515-.516 1.442-.68 2.121 0 .361.36.536.769.488 1.195-.044.4-.273.712-.488.926l-.009.01-.009.008-.009.01-.009.008-.01.01-.008.009-.01.009-.009.01-.009.008-.01.01-.009.01-.01.009-.008.009-.01.01-.01.009-.009.01-.01.009-.01.01-.009.01-.01.009-.01.01-.009.01-.01.009-.01.01-.01.01-.009.01-.01.01-.01.01-.01.01-.01.01-.01.01-.01.01-.01.01-.01.01-.01.01-.01.01-.01.01-.01.01-.01.01-.011.01-.01.01-.01.011-.011.01-.01.01-.01.011-.011.01-.01.011-.011.01-.01.011-.011.01-.01.011-.011.01-.011.012-.01.01-.011.01-.011.012-.01.01-.012.011-.01.01-.011.012-.011.01-.01.011-.012.011-.01.011-.012.011-.01.011-.012.011-.01.011-.012.011-.01.011-.012.011-.01.011-.012.011-.011.011-.011.012-.011.01-.012.012-.01.011-.012.011-.011.012-.012.011-.01.011-.012.012-.012.011-.01.011-.012.012-.012.011-.011.012-.012.011-.011.011-.012.012-.011.011-.012.012-.011.012-.012.011-.011.012-.012.011-.011.012-.012.011-.012.012-.011.012-.012.011-.012.012-.011.012-.012.012-.012.011-.012.012-.011.012-.012.012-.012.011-.012.012-.012.012-.011.012-.012.012-.012.012-.012.012-.012.011-.012.012-.012.012-.012.012-.012.012-.012.012-.012.012-.012.012-.012.012-.012.012-.012.012-.012.012-.012.012-.012.012-.012.012-.012.012-.012.012-.012.013-.012.012-.012.012-.013.012-.012.012-.012.012-.012.012-.012.013-.012.012-.012.012-.013.012-.012.012-.012.013-.012.012-.013.012-.012.012-.012.012-.012.013-.012.012-.013.012-.012.012-.012.013-.013.012-.012.012-.012.013-.012.012-.013.012-.012.012-.012.013-.013.012-.012.012-.012.013-.013.012-.012.012-.012.013-.013.012-.012.012-.012.013-.013.012-.012.012-.012.013-.013.012-.012.012-.012.013-.013.012-.012.012-.012.013-.013.012-.012.012-.012.013-.013.012-.012.013-.012.012-.013.012-.012.013-.013.012-.012.012-.012.013-.013.012-.012.012-.012.013-.013.012-.012.012-.012.013-.013.012-.012.012-.012.013-.013.012-.012.012-.012.013-.013.012-.012.012-.012.013-.013.012-.012.012-.012.013-.012.012-.013.012-.012.012-.012.013-.013.012-.012.012-.012.013-.012.012-.013.012-.012.012-.012.012-.012.013-.012.012-.013.012-.012.012-.012.013-.012.012-.012.012-.013.012-.012.012-.012.012-.012.013-.012.012-.012.012-.012.012-.013.012-.012.012-.012.012-.012.012-.012.012-.012.012-.012.012-.012.012-.012.012-.012.012-.012.012-.012.012-.012.012-.012.012-.012.012-.012.012-.012.012-.012.012-.012.012-.011.012-.012.012-.012.011-.012.012-.012.012-.012.012-.011.012-.012.012-.012.011-.012.012-.011.012-.012.011-.012.012-.011.012-.012.011-.012.012-.011.012-.012.011-.012.012-.011.012-.012.011-.011.012-.012.011-.011.012-.012.011-.011.012-.012.011-.011.012-.012.011-.011.011-.011.012-.012.011-.011.011-.011.012-.012.011-.01.011-.012.012-.011.01-.012.012-.01.011-.012.011-.011.011-.011.012-.011.01-.011.012-.011.01-.012.012-.01.01-.012.012-.01.01-.011.012-.011.01-.011.012-.011.01-.01.011-.012.011-.01.011-.011.01-.011.011-.01.011-.011.01-.011.011-.01.011-.011.01-.011.011-.01.01-.011.011-.01.011-.011.01-.01.01-.01.011-.011.01-.01.011-.011.01-.01.01-.01.011-.01.01-.011.01-.01.01-.01.01-.01.011-.01.01-.01.01-.01.01-.01.01-.01.01-.01.01-.01.01-.01.01-.01.01-.01.01-.01.01-.01.01-.01.009-.01.01-.009.01-.01.009-.01.01-.009.01-.01.009-.009.01-.01.009-.009.01-.01.008-.008.01-.01.01-.01.008-.008.01-.01.009-.009.01-.009.008-.009.01-.01.008-.008.01-.01.009-.008.009-.01.008-.008.01-.009.008-.009.01-.008.008-.01.009-.008.008-.009.009-.008.009-.009.008-.008.009-.009.008-.008.009-.009.008-.008.009-.009.008-.008.008-.008.009-.008.008-.009.008-.008.008-.008.008-.008.008-.008.008-.008.008-.008.008-.008.008-.008.008-.008.008-.007.008-.008.008-.008.007-.007.008-.008.008-.008.007-.007.008-.008.007-.007.008-.007.007-.008.007-.007.007-.007.008-.008.007-.007.007-.007.007-.007.007-.007.007-.007.007-.007.007-.007.007-.007.007-.006.007-.007.007-.007.006-.007.007-.006.007-.007.006-.006.007-.007.006-.006.006-.006.007-.007.006-.006.007-.006.006-.006.006-.007.006-.006.006-.006.006-.006.006-.006.006-.005.006-.006.006-.006.005-.006.006-.005.006-.006.005-.005.006-.006.005-.005.006-.006.005-.005.006-.006.005-.005.005-.005.005-.005.005-.005.006-.005.005-.005.005-.005.005-.005.004-.005.005-.005.005-.004.005-.005.004-.004.005-.005.004-.004.005-.005.004-.004.005-.005.004-.004.004-.004.004-.004.005-.004.004-.004.004-.004.004-.004.004-.004.003-.004.004-.003.004-.004.004-.004.003-.003.004-.004.003-.003.004-.004.003-.003.003-.003.004-.003.003-.004.003-.003.003-.003.003-.003.003-.002.003-.003.003-.003.003-.003.002-.002.003-.003.002-.003.003-.002.002-.002.003-.003.002-.002.002-.002.003-.002.002-.002.002-.002.002-.002.002-.002.002-.002.002-.002.001-.002.002c-.807.807-1.656 1.04-2.38.985-.693-.054-1.247-.37-1.509-.631-.489-.49-.745-1.008-.79-1.54-.044-.526.123-.998.352-1.393.228-.392.533-.733.81-1.01.139-.139.275-.265.394-.375l.038-.036c.105-.097.19-.175.257-.243l.354-.353 4.596-4.596.092-.093a3.608 3.608 0 0 1 1.976-.985c.9-.127 1.924.12 2.882 1.078.963.963 1.19 2.01 1.041 2.926a3.85 3.85 0 0 1-1.041 2.023l-6.01 6.01a.5.5 0 1 1-.708-.706l6.01-6.01c.297-.298.659-.843.762-1.478z" fill="currentColor" stroke="none"></path></g></symbol><symbol id="gear--fill" viewBox="0 0 16 16"><g class="nc-icon-wrapper"><path fill-rule="evenodd" clip-rule="evenodd" d="M7.203 2c-.46 0-.792.44-.665.882.146.511-.503.867-.856.468l-.008-.01a1 1 0 0 0-1.456-.043L3.214 4.3a.804.804 0 0 0 .099 1.221c.424.306.154.975-.364.9A.83.83 0 0 0 2 7.246v1.47a1 1 0 0 0 1 1c.52 0 .695.691.24.939a.59.59 0 0 0-.136.935L4.3 12.786c.35.35.931.303 1.221-.099.306-.424.975-.154.9.364a.83.83 0 0 0 .823.949h1.51a.83.83 0 0 0 .822-.95c-.074-.517.595-.787.901-.363.29.402.87.45 1.221.099l1.084-1.083a.804.804 0 0 0-.103-1.223c-.427-.304-.159-.977.36-.903a.84.84 0 0 0 .96-.832v-1.46c0-.552-.457-1-1.01-1-.52 0-.694-.694-.236-.94a.59.59 0 0 0 .139-.937l-1.194-1.194a.804.804 0 0 0-1.221.099c-.306.424-.975.154-.9-.364A.83.83 0 0 0 8.754 2H7.203zM10 8a2 2 0 1 1-4 0 2 2 0 0 1 4 0zm1 0a3 3 0 1 1-6 0 3 3 0 0 1 6 0z" fill="currentColor" stroke="none"></path></g></symbol><symbol id="panel" viewBox="0 0 16 16"><g class="nc-icon-wrapper"><path fill-rule="evenodd" clip-rule="evenodd" d="M6.5 3H12a1 1 0 0 1 1 1v8a1 1 0 0 1-1 1H6.5V3zM12 2a2 2 0 0 1 2 2v8a2 2 0 0 1-2 2H4a2 2 0 0 1-2-2V4a2 2 0 0 1 2-2h8zM5.5 3v10H4a1 1 0 0 1-1-1V4a1 1 0 0 1 1-1h1.5z" fill="currentColor" stroke="none"></path></g></symbol><symbol id="layer" viewBox="0 0 16 16"><g class="nc-icon-wrapper"><path fill-rule="evenodd" clip-rule="evenodd" d="M2.927 8.492a.5.5 0 0 1 0-.9l1.164-.565 3.68 1.786L11.727 7l1.281.587a.5.5 0 0 1 0 .91l-4.965 2.275a.5.5 0 0 1-.427-.005l-4.69-2.275zm4.844 3.28l-3.68-1.787-1.164.565a.5.5 0 0 0 0 .9l4.69 2.276a.5.5 0 0 0 .426.004l4.965-2.276a.5.5 0 0 0 0-.909l-1.281-.587-3.956 1.813zm5.402-2.251l.252.115c1.167.535 1.167 2.193 0 2.728l-4.966 2.275a1.5 1.5 0 0 1-1.28-.014L2.49 12.35c-1.126-.547-1.126-2.153 0-2.7l.268-.13-.268-.129c-1.126-.547-1.126-2.152 0-2.699l.53-.257-.53-.257c-1.126-.547-1.126-2.152 0-2.7l4.69-2.275a1.5 1.5 0 0 1 1.28-.014l4.965 2.276c1.167.535 1.167 2.192 0 2.727l-.53.243.53.243c1.167.535 1.167 2.193 0 2.727l-.252.116zM2.927 5.278a.5.5 0 0 1 0-.9l4.69-2.275a.5.5 0 0 1 .426-.005l4.965 2.276a.5.5 0 0 1 0 .909L8.043 7.559a.5.5 0 0 1-.427-.005l-4.69-2.276z" fill="currentColor" stroke="none"></path></g></symbol><symbol id="page" viewBox="0 0 16 16"><g class="nc-icon-wrapper"><path fill-rule="evenodd" clip-rule="evenodd" d="M11 3H5a1 1 0 0 0-1 1v8a1 1 0 0 0 1 1h6a1 1 0 0 0 1-1V4a1 1 0 0 0-1-1zM5 2a2 2 0 0 0-2 2v8a2 2 0 0 0 2 2h6a2 2 0 0 0 2-2V4a2 2 0 0 0-2-2H5z" fill="currentColor" stroke="none"></path><path fill-rule="evenodd" clip-rule="evenodd" d="M5.5 5a.5.5 0 0 1 .5-.5h4a.5.5 0 0 1 0 1H6a.5.5 0 0 1-.5-.5z" fill="currentColor" stroke="none"></path><path fill-rule="evenodd" clip-rule="evenodd" d="M5.5 8a.5.5 0 0 1 .5-.5h4a.5.5 0 0 1 0 1H6a.5.5 0 0 1-.5-.5z" fill="currentColor" stroke="none"></path><path fill-rule="evenodd" clip-rule="evenodd" d="M5.5 11a.5.5 0 0 1 .5-.5h4a.5.5 0 0 1 0 1H6a.5.5 0 0 1-.5-.5z" fill="currentColor" stroke="none"></path></g></symbol><symbol id="open" viewBox="0 0 16 16"><g class="nc-icon-wrapper"><path fill-rule="evenodd" clip-rule="evenodd" d="M3.646 9.646a.5.5 0 0 1 .708 0L8 13.293l3.646-3.647a.5.5 0 0 1 .708.708l-4 4a.5.5 0 0 1-.708 0l-4-4a.5.5 0 0 1 0-.708z" fill="currentColor" stroke="none"></path><path fill-rule="evenodd" clip-rule="evenodd" d="M12.354 6.354a.5.5 0 0 1-.708 0L8 2.707 4.354 6.354a.5.5 0 1 1-.708-.708l4-4a.5.5 0 0 1 .708 0l4 4a.5.5 0 0 1 0 .708z" fill="currentColor" stroke="none"></path></g></symbol><symbol id="new" viewBox="0 0 16 16"><g class="nc-icon-wrapper"><path fill-rule="evenodd" clip-rule="evenodd" d="M3.5 8a4.5 4.5 0 1 0 9 0 4.5 4.5 0 0 0-9 0zM2 8a6 6 0 1 0 12 0A6 6 0 0 0 2 8z" fill="currentColor" stroke="none"></path></g></symbol><symbol id="mouse" viewBox="0 0 16 16"><g class="nc-icon-wrapper"><rect x="4.5" y="2.5" width="7" height="9" rx="2.5" stroke="currentColor" fill="none"></rect><path d="M4.5 5A2.5 2.5 0 0 1 7 2.5h2A2.5 2.5 0 0 1 11.5 5v.5h-7V5z" stroke="currentColor" fill="none"></path><path stroke="currentColor" d="M7.75 3.25h.5v1.5h-.5z" fill="none"></path></g></symbol><symbol id="minus" viewBox="0 0 16 16"><g class="nc-icon-wrapper"><path fill-rule="evenodd" clip-rule="evenodd" d="M3.5 8a.5.5 0 0 1 .5-.5h8a.5.5 0 0 1 0 1H4a.5.5 0 0 1-.5-.5z" fill="currentColor" stroke="none"></path></g></symbol><symbol id="letter" viewBox="0 0 16 16"><g class="nc-icon-wrapper"><rect x="2.5" y="3.5" width="11" height="9" rx="1.5" stroke="currentColor" fill="none"></rect><path d="M2.5 4.667c0-.645.522-1.167 1.167-1.167h8.666a1.167 1.167 0 0 1 .7 2.1L8.9 8.7a1.5 1.5 0 0 1-1.8 0L2.967 5.6a1.167 1.167 0 0 1-.467-.933z" stroke="currentColor" fill="none"></path></g></symbol><symbol id="map" viewBox="0 0 16 16"><g class="nc-icon-wrapper"><path fill-rule="evenodd" clip-rule="evenodd" d="M5.186 13.543a1 1 0 0 1-1.732-.385l-1.549-5.78a1 1 0 0 1 .2-.901l2.31-2.75a1 1 0 0 1 1.167-.274L8.53 4.745 10.82 2.3a1 1 0 0 1 1.696.425l1.56 5.824a1 1 0 0 1-.236.943l-2.709 2.893a1 1 0 0 1-1.131.232l-2.951-1.292-1.862 2.218zm2.12-3.028l2.583 1.131-1.634-6.1-2.583-1.13 1.634 6.099zm-2.504-5.94l-1.907 2.27a.5.5 0 0 0-.1.451l1.532 5.716a.1.1 0 0 0 .173.038l1.95-2.323-1.648-6.153zm4.312.774l1.659 6.19 2.292-2.447a.5.5 0 0 0 .117-.471l-1.54-5.749a.1.1 0 0 0-.17-.042L9.115 5.349z" fill="currentColor" stroke="none"></path></g></symbol><symbol id="logout" viewBox="0 0 16 16"><g class="nc-icon-wrapper"><path fill-rule="evenodd" clip-rule="evenodd" d="M12.5 8a.5.5 0 0 1-.146.354l-2.5 2.5a.5.5 0 0 1-.708-.708L10.793 8.5H6a.5.5 0 0 1 0-1h4.793L9.146 5.854a.5.5 0 1 1 .708-.708l2.5 2.5A.5.5 0 0 1 12.5 8zm-6-4a.5.5 0 0 1-.5.5H3.5v7H6a.5.5 0 0 1 0 1H3a.5.5 0 0 1-.5-.5V4a.5.5 0 0 1 .5-.5h3a.5.5 0 0 1 .5.5z" fill="currentColor" stroke="none"></path></g></symbol><symbol id="login" viewBox="0 0 16 16"><g class="nc-icon-wrapper"><path fill-rule="evenodd" clip-rule="evenodd" d="M12.5 8a.5.5 0 0 1-.5.5H7.207l1.647 1.646a.5.5 0 0 1-.708.708l-2.5-2.5a.5.5 0 0 1 0-.708l2.5-2.5a.5.5 0 1 1 .708.708L7.207 7.5H12a.5.5 0 0 1 .5.5zm-6-4a.5.5 0 0 1-.5.5H3.5v7H6a.5.5 0 0 1 0 1H3a.5.5 0 0 1-.5-.5V4a.5.5 0 0 1 .5-.5h3a.5.5 0 0 1 .5.5z" fill="currentColor" stroke="none"></path></g></symbol><symbol id="link-none-2" viewBox="0 0 16 16"><g class="nc-icon-wrapper"><path fill-rule="evenodd" clip-rule="evenodd" d="M9.414 3.757L7.646 5.525a.5.5 0 1 1-.707-.707L8.707 3.05a3.292 3.292 0 0 1 1.732-.891c.79-.129 1.688.069 2.51.891.823.823 1.02 1.721.892 2.511a3.292 3.292 0 0 1-.891 1.732L11.182 9.06a.5.5 0 1 1-.707-.707l1.768-1.768c.238-.238.528-.678.611-1.185.078-.477-.02-1.052-.611-1.644-.592-.592-1.167-.689-1.644-.611a2.294 2.294 0 0 0-1.185.611z" fill="currentColor" stroke="none"></path><path fill-rule="evenodd" clip-rule="evenodd" d="M6.586 12.243l1.768-1.768a.5.5 0 1 1 .707.707L7.293 12.95a3.292 3.292 0 0 1-1.732.891c-.79.129-1.688-.069-2.51-.891-.823-.823-1.02-1.721-.892-2.511.124-.76.54-1.38.891-1.732L4.818 6.94a.5.5 0 1 1 .707.707L3.757 9.414a2.294 2.294 0 0 0-.611 1.185c-.078.477.02 1.052.611 1.644.592.591 1.167.689 1.644.611a2.294 2.294 0 0 0 1.185-.611z" fill="currentColor" stroke="none"></path></g></symbol><symbol id="link-none-1" viewBox="0 0 16 16"><g class="nc-icon-wrapper"><path fill-rule="evenodd" clip-rule="evenodd" d="M12 6H9.5a.5.5 0 0 1 0-1H12c.497 0 1.23.145 1.855.594C14.505 6.062 15 6.837 15 8s-.496 1.938-1.145 2.406A3.292 3.292 0 0 1 12 11H9.5a.5.5 0 0 1 0-1H12c.337 0 .853-.105 1.27-.406.392-.282.73-.757.73-1.594 0-.837-.338-1.312-.73-1.594A2.294 2.294 0 0 0 12 6z" fill="currentColor" stroke="none"></path><path fill-rule="evenodd" clip-rule="evenodd" d="M4 10h2.5a.5.5 0 0 1 0 1H4c-.497 0-1.23-.145-1.855-.594C1.495 9.938 1 9.163 1 8s.496-1.938 1.145-2.406A3.292 3.292 0 0 1 4 5h2.5a.5.5 0 0 1 0 1H4c-.337 0-.853.105-1.27.406C2.338 6.688 2 7.163 2 8c0 .837.338 1.312.73 1.594.417.3.933.406 1.27.406z" fill="currentColor" stroke="none"></path></g></symbol><symbol id="link-2" viewBox="0 0 16 16"><g class="nc-icon-wrapper"><path fill-rule="evenodd" clip-rule="evenodd" d="M9.414 3.757L7.646 5.525a.5.5 0 1 1-.707-.707L8.707 3.05a3.292 3.292 0 0 1 1.732-.891c.79-.129 1.688.069 2.51.891.823.823 1.02 1.721.892 2.511a3.292 3.292 0 0 1-.891 1.732L11.182 9.06a.5.5 0 1 1-.707-.707l1.768-1.768c.238-.238.528-.678.611-1.185.078-.477-.02-1.052-.611-1.644-.592-.592-1.167-.689-1.644-.611a2.294 2.294 0 0 0-1.185.611z" fill="currentColor" stroke="none"></path><path fill-rule="evenodd" clip-rule="evenodd" d="M6.586 12.243l1.768-1.768a.5.5 0 1 1 .707.707L7.293 12.95a3.292 3.292 0 0 1-1.732.891c-.79.129-1.688-.069-2.51-.891-.823-.823-1.02-1.721-.892-2.511.124-.76.54-1.38.891-1.732L4.818 6.94a.5.5 0 1 1 .707.707L3.757 9.414a2.294 2.294 0 0 0-.611 1.185c-.078.477.02 1.052.611 1.644.592.591 1.167.689 1.644.611a2.294 2.294 0 0 0 1.185-.611z" fill="currentColor" stroke="none"></path><path fill-rule="evenodd" clip-rule="evenodd" d="M5.525 10.475a.5.5 0 0 1 0-.707l4.243-4.243a.5.5 0 0 1 .707.707l-4.243 4.243a.5.5 0 0 1-.707 0z" fill="currentColor" stroke="none"></path></g></symbol><symbol id="link-1" viewBox="0 0 16 16"><g class="nc-icon-wrapper"><path fill-rule="evenodd" clip-rule="evenodd" d="M12 6H9.5a.5.5 0 0 1 0-1H12c.497 0 1.23.145 1.855.594C14.505 6.062 15 6.837 15 8s-.496 1.938-1.145 2.406A3.292 3.292 0 0 1 12 11H9.5a.5.5 0 0 1 0-1H12c.337 0 .853-.105 1.27-.406.392-.282.73-.757.73-1.594 0-.837-.338-1.312-.73-1.594A2.294 2.294 0 0 0 12 6z" fill="currentColor" stroke="none"></path><path fill-rule="evenodd" clip-rule="evenodd" d="M4 10h2.5a.5.5 0 0 1 0 1H4c-.497 0-1.23-.145-1.855-.594C1.495 9.938 1 9.163 1 8s.496-1.938 1.145-2.406A3.292 3.292 0 0 1 4 5h2.5a.5.5 0 0 1 0 1H4c-.337 0-.853.105-1.27.406C2.338 6.688 2 7.163 2 8c0 .837.338 1.312.73 1.594.417.3.933.406 1.27.406z" fill="currentColor" stroke="none"></path><path fill-rule="evenodd" clip-rule="evenodd" d="M4.5 8a.5.5 0 0 1 .5-.5h6a.5.5 0 0 1 0 1H5a.5.5 0 0 1-.5-.5z" fill="currentColor" stroke="none"></path></g></symbol><symbol id="link" viewBox="0 0 16 16"><g class="nc-icon-wrapper"><path d="M5.508 9.313c.22-.25.376-.557.448-.894l-.152.446-.296.448z" fill="currentColor" stroke="none"></path><path d="M5.508 6.687l.448.894a1.994 1.994 0 0 0-.448-.894z" fill="currentColor" stroke="none"></path><path fill-rule="evenodd" clip-rule="evenodd" d="M14 4a2 2 0 0 1-3.508 1.313l-.448-.894A2 2 0 1 1 14 4zM5.508 6.687l4.536-2.268c.072.337.229.643.447.894L5.957 7.581a1.994 1.994 0 0 0-.448-.894zm0 2.626a2 2 0 1 1 0-2.627l.448.895a2.008 2.008 0 0 1 0 .838l-.152.446-.296.448zm0 0c.22-.25.376-.557.448-.894l4.535 2.268a2 2 0 1 1-.447.894L5.508 9.313z" fill="currentColor" stroke="none"></path><path d="M10.492 5.313l-.448-.894c.072.337.229.643.447.894z" fill="currentColor" stroke="none"></path></g></symbol><symbol id="level--fill" viewBox="0 0 16 16"><g class="nc-icon-wrapper"><path d="M2 9.5a1.5 1.5 0 1 1 3 0v3a1.5 1.5 0 0 1-3 0v-3z" fill="currentColor" stroke="none"></path><path d="M11 3.5a1.5 1.5 0 0 1 3 0v9a1.5 1.5 0 0 1-3 0v-9z" fill="currentColor" stroke="none"></path><path d="M6.5 6.5a1.5 1.5 0 1 1 3 0v6a1.5 1.5 0 0 1-3 0v-6z" fill="currentColor" stroke="none"></path></g></symbol><symbol id="level" viewBox="0 0 16 16"><g class="nc-icon-wrapper"><path d="M2 9.5a1.5 1.5 0 1 1 3 0v3a1.5 1.5 0 0 1-3 0v-3z" stroke="currentColor" fill="none"></path><path d="M11 3.5a1.5 1.5 0 0 1 3 0v9a1.5 1.5 0 0 1-3 0v-9z" stroke="currentColor" fill="none"></path><path d="M6.5 6.5a1.5 1.5 0 1 1 3 0v6a1.5 1.5 0 0 1-3 0v-6z" stroke="currentColor" fill="none"></path></g></symbol><symbol id="keyboard" viewBox="0 0 16 16"><g class="nc-icon-wrapper"><rect x="11.5" y="8.5" width="2" height="2" rx=".5" stroke="currentColor" fill="none"></rect><path stroke="currentColor" d="M8.5 6.5h2v2h-2z" fill="none"></path><path stroke="currentColor" d="M10.5 6.5h3v2h-3z" fill="none"></path><rect x="2.5" y="8.5" width="2" height="2" rx=".5" stroke="currentColor" fill="none"></rect><path stroke="currentColor" d="M9.5 4.5h2v2h-2z" fill="none"></path><rect x="11.5" y="4.5" width="2" height="2" rx=".5" stroke="currentColor" fill="none"></rect><rect x="2.5" y="4.5" width="3" height="2" rx=".5" stroke="currentColor" fill="none"></rect><path stroke="currentColor" d="M2.5 6.5h2v2h-2z" fill="none"></path><path stroke="currentColor" d="M4.5 8.5h5v2h-5z" fill="none"></path><path stroke="currentColor" d="M7.5 4.5h2v2h-2z" fill="none"></path><path stroke="currentColor" d="M9.5 8.5h2v2h-2z" fill="none"></path><path stroke="currentColor" d="M5.5 4.5h2v2h-2z" fill="none"></path><path stroke="currentColor" d="M6.5 6.5h2v2h-2z" fill="none"></path></g></symbol><symbol id="layer--fill" viewBox="0 0 16 16"><g class="nc-icon-wrapper"><path d="M2.927 5.278a.5.5 0 0 1 0-.9l4.69-2.275a.5.5 0 0 1 .426-.005l4.965 2.276a.5.5 0 0 1 0 .909L8.043 7.559a.5.5 0 0 1-.427-.005l-4.69-2.276z" fill="currentColor" stroke="none"></path><path fill-rule="evenodd" clip-rule="evenodd" d="M4.091 9.985l-1.164.565a.5.5 0 0 0 0 .9l4.69 2.276a.5.5 0 0 0 .426.004l4.965-2.276a.5.5 0 0 0 0-.909l-1.281-.587-3.956 1.813-3.68-1.786z" fill="currentColor" stroke="none"></path><path d="M4.091 7.027l-1.164.565a.5.5 0 0 0 0 .9l4.69 2.275a.5.5 0 0 0 .426.005l4.965-2.276a.5.5 0 0 0 0-.909L11.727 7 7.771 8.813l-3.68-1.786z" fill="currentColor" stroke="none"></path></g></symbol><symbol id="layer-3--fill" viewBox="0 0 16 16"><g class="nc-icon-wrapper"><path d="M2.927 11.278a.5.5 0 0 1 0-.9l4.69-2.275a.5.5 0 0 1 .426-.005l4.965 2.276a.5.5 0 0 1 0 .909l-4.965 2.276a.5.5 0 0 1-.427-.005l-4.69-2.276z" fill="currentColor" stroke="none"></path><path fill-rule="evenodd" clip-rule="evenodd" d="M4.091 9.985l-1.164.565a.5.5 0 0 0 0 .9l4.69 2.276a.5.5 0 0 0 .426.004l4.965-2.276a.5.5 0 0 0 0-.909l-1.281-.587-3.956 1.813-3.68-1.786z" fill="currentColor" stroke="none"></path><path d="M4.091 10.027l-1.164.565a.5.5 0 0 0 0 .9l4.69 2.275a.5.5 0 0 0 .426.005l4.965-2.276a.5.5 0 0 0 0-.909L11.727 10l-3.956 1.813-3.68-1.786z" fill="currentColor" stroke="none"></path></g></symbol><symbol id="layer-3" viewBox="0 0 16 16"><g class="nc-icon-wrapper"><path fill-rule="evenodd" clip-rule="evenodd" d="M2.927 10.379a.525.525 0 0 0-.08.048.498.498 0 0 0-.195.487.513.513 0 0 0-.006.107.495.495 0 0 0 .28.47l4.69 2.276a.5.5 0 0 0 .427.005l4.965-2.276a.451.451 0 0 0 .078-.044.495.495 0 0 0 .213-.431.522.522 0 0 0-.006-.107.498.498 0 0 0-.285-.54L8.043 8.098a.5.5 0 0 0-.427.005l-4.69 2.276zm11.37.535a1.484 1.484 0 0 0-.872-1.45L8.459 7.19a1.5 1.5 0 0 0-1.28.014L2.49 9.48c-.593.288-.874.87-.842 1.435a1.541 1.541 0 0 0-.003.107 1.483 1.483 0 0 0 .845 1.37l4.69 2.276a1.5 1.5 0 0 0 1.28.014l4.965-2.276c.59-.27.882-.83.875-1.384 0-.036 0-.071-.003-.107z" fill="currentColor" stroke="none"></path></g></symbol><symbol id="layer-2--fill" viewBox="0 0 16 16"><g class="nc-icon-wrapper"><path d="M2.927 8.278a.5.5 0 0 1 0-.9l4.69-2.275a.5.5 0 0 1 .426-.005l4.965 2.276a.5.5 0 0 1 0 .909l-4.965 2.276a.5.5 0 0 1-.427-.005l-4.69-2.276z" fill="currentColor" stroke="none"></path><path fill-rule="evenodd" clip-rule="evenodd" d="M4.091 9.985l-1.164.565a.5.5 0 0 0 0 .9l4.69 2.276a.5.5 0 0 0 .426.004l4.965-2.276a.5.5 0 0 0 0-.909l-1.281-.587-3.956 1.813-3.68-1.786z" fill="currentColor" stroke="none"></path><path d="M4.091 7.027l-1.164.565a.5.5 0 0 0 0 .9l4.69 2.275a.5.5 0 0 0 .426.005l4.965-2.276a.5.5 0 0 0 0-.909L11.727 7 7.771 8.813l-3.68-1.786z" fill="currentColor" stroke="none"></path></g></symbol><symbol id="layer-2" viewBox="0 0 16 16"><g class="nc-icon-wrapper"><path fill-rule="evenodd" clip-rule="evenodd" d="M2.927 8.492a.499.499 0 0 1-.27-.556.499.499 0 0 1 .27-.557l4.69-2.276a.5.5 0 0 1 .426-.005l4.965 2.276a.498.498 0 0 1 .28.561.498.498 0 0 1-.28.561l-4.965 2.276a.5.5 0 0 1-.427-.005l-4.69-2.275zm-1.278-.557c-.04-.572.24-1.165.841-1.456l4.69-2.276a1.5 1.5 0 0 1 1.28-.014l4.965 2.276c.621.285.911.888.871 1.47.04.583-.25 1.186-.871 1.47l-.252.116.252.115c1.167.535 1.167 2.193 0 2.728l-4.966 2.275a1.5 1.5 0 0 1-1.28-.014L2.49 12.35c-1.126-.547-1.126-2.153 0-2.7l.268-.13-.268-.129a1.485 1.485 0 0 1-.841-1.456zm11.36 2.61a.5.5 0 0 1 0 .91L8.042 13.73a.5.5 0 0 1-.427-.005l-4.69-2.275a.5.5 0 0 1 0-.9l1.165-.565 3.68 1.786 3.956-1.813 1.281.588z" fill="currentColor" stroke="none"></path></g></symbol><symbol id="hs" viewBox="0 0 16 16"><g class="nc-icon-wrapper"><path d="M5 8l6-6H5v6z" fill="currentColor" stroke="none"></path><path d="M5 8l5.786 6V8H5z" fill="currentColor" stroke="none"></path></g></symbol><symbol id="label" viewBox="0 0 16 16"><g class="nc-icon-wrapper"><path d="M2.56 9.089a.5.5 0 0 1 0-.707l5.285-5.285a.5.5 0 0 1 .422-.142l4.103.567.567 4.103a.5.5 0 0 1-.142.422L7.51 13.33a.5.5 0 0 1-.707 0L2.561 9.09z" stroke="currentColor" fill="none"></path><circle cx="9.985" cy="5.907" r="1" transform="rotate(-45 9.985 5.907)" fill="currentColor" stroke="none"></circle></g></symbol><symbol id="heart" viewBox="0 0 16 16"><g class="nc-icon-wrapper"><path d="M2.912 6.391c0 2.145 1.803 4.264 4.606 6.072.156.1.346.201.477.201.13 0 .321-.1.477-.2 2.808-1.809 4.606-3.928 4.606-6.073 0-1.853-1.281-3.139-2.923-3.139-.96 0-1.708.437-2.16 1.1-.442-.658-1.195-1.1-2.155-1.1-1.647 0-2.928 1.286-2.928 3.14zm1.035-.005c0-1.265.834-2.124 1.954-2.124.904 0 1.411.547 1.727 1.024.141.206.236.271.367.271.136 0 .221-.07.367-.27.341-.468.828-1.025 1.727-1.025 1.125 0 1.959.859 1.959 2.124 0 1.768-1.838 3.727-3.958 5.133-.045.03-.075.05-.095.05-.02 0-.05-.02-.09-.05-2.12-1.406-3.958-3.365-3.958-5.133z" fill="currentColor" stroke="none"></path></g></symbol><symbol id="jwt" viewBox="0 0 16 16"><g class="nc-icon-wrapper"><path d="M3.57 12.07c-.307 0-.553-.045-.74-.135a.84.84 0 0 1-.405-.425c-.083-.193-.128-.447-.135-.76a34.876 34.876 0 0 1 0-1.645h.635c-.007.183-.012.375-.015.575v.6c.003.197.008.387.015.57.007.227.058.392.155.495.097.103.26.155.49.155.22 0 .377-.052.47-.155.097-.103.145-.268.145-.495V4h.665v6.75c0 .47-.098.808-.295 1.015-.193.203-.522.305-.985.305z" fill="currentColor" stroke="none"></path><path d="M6.161 12l-.545-8h.67l.175 3.01.215 4.39h.22l.21-4.39.27-2.96h1.145l.28 2.96.19 4.39h.22l.225-4.39L9.621 4h.66l-.555 8H8.521l-.225-2.625-.225-4.74h-.25l-.23 4.74L7.366 12H6.161z" fill="currentColor" stroke="none"></path><path d="M11.674 12V4.6h-1.02V4h2.7v.6h-1.015V12h-.665z" fill="currentColor" stroke="none"></path></g></symbol><symbol id="json" viewBox="0 0 16 16"><g class="nc-icon-wrapper"><path d="M5 3.5H4a.5.5 0 0 0-.5.5v2.945a.5.5 0 0 1-.183.387l-.344.281a.5.5 0 0 0 0 .774l.344.281a.5.5 0 0 1 .183.387V12a.5.5 0 0 0 .5.5h1" stroke="currentColor" fill="none"></path><path d="M11 3.5h1a.5.5 0 0 1 .5.5v2.945a.5.5 0 0 0 .183.387l.344.281a.5.5 0 0 1 0 .774l-.344.281a.5.5 0 0 0-.183.387V12a.5.5 0 0 1-.5.5h-1" stroke="currentColor" fill="none"></path><circle cx="6" cy="10.25" r=".75" fill="currentColor" stroke="none"></circle><circle cx="8" cy="10.25" r=".75" fill="currentColor" stroke="none"></circle><circle cx="10" cy="10.25" r=".75" fill="currentColor" stroke="none"></circle></g></symbol><symbol id="italic" viewBox="0 0 16 16"><g class="nc-icon-wrapper"><path d="M4.5 12.5h5.25" stroke="currentColor" fill="none"></path><path d="M9 3.5L7 12" stroke="currentColor" fill="none"></path><path d="M6.25 3h5.25" stroke="currentColor" fill="none"></path></g></symbol><symbol id="humans--fill" viewBox="0 0 16 16"><g class="nc-icon-wrapper"><path fill-rule="evenodd" clip-rule="evenodd" d="M11.74 9.771c.521-.38.86-.992.86-1.684C12.6 6.934 11.66 6 10.5 6c-1.16 0-2.1.934-2.1 2.087 0 .692.339 1.305.86 1.684a3.594 3.594 0 0 0-1.235 1.031 4.78 4.78 0 0 0-.759 1.468 5.579 5.579 0 0 0-.26 1.48.242.242 0 0 0 .244.25h6.5c.138 0 .25-.112.245-.25a5.581 5.581 0 0 0-.261-1.48 4.78 4.78 0 0 0-.76-1.467A3.594 3.594 0 0 0 11.74 9.77z" fill="currentColor" stroke="none"></path><path fill-rule="evenodd" clip-rule="evenodd" d="M6.063 6.3c.447-.332.737-.869.737-1.474C6.8 3.818 5.994 3 5 3s-1.8.818-1.8 1.826c0 .605.29 1.142.737 1.474l-.085.045c-.364.198-.695.49-.973.857-.279.368-.5.804-.65 1.284a4.97 4.97 0 0 0-.223 1.264.24.24 0 0 0 .244.25h5.5a.24.24 0 0 0 .244-.25 5.176 5.176 0 0 0-.222-1.264 4.214 4.214 0 0 0-.65-1.284 3.098 3.098 0 0 0-1.06-.902z" fill="currentColor" stroke="none"></path></g></symbol><symbol id="humans" viewBox="0 0 16 16"><g class="nc-icon-wrapper"><path fill-rule="evenodd" clip-rule="evenodd" d="M2.7 4.826C2.7 3.548 3.723 2.5 5 2.5s2.3 1.048 2.3 2.326c0 .518-.168.998-.452 1.385.248.195.473.427.672.69l-.399.301.399-.302c.161.213.304.444.428.69A2.598 2.598 0 0 1 10.5 5.5c1.433 0 2.6 1.155 2.6 2.587 0 .602-.207 1.156-.553 1.595.304.226.58.5.823.815.364.47.648 1.02.84 1.62a6.078 6.078 0 0 1 .284 1.612.742.742 0 0 1-.744.771h-6.5a.742.742 0 0 1-.744-.771 6.079 6.079 0 0 1 .284-1.612 5.28 5.28 0 0 1 .837-1.617H2.25a.74.74 0 0 1-.743-.774 5.471 5.471 0 0 1 .245-1.39c.166-.53.412-1.019.728-1.436.2-.262.424-.494.672-.69A2.334 2.334 0 0 1 2.7 4.827zM5 3.5c-.711 0-1.3.587-1.3 1.326 0 .442.211.832.536 1.073l.652.485-.727.363a2.6 2.6 0 0 0-.884.757c-.24.318-.437.702-.572 1.132a4.47 4.47 0 0 0-.178.864h4.946a4.616 4.616 0 0 0-.178-.864 3.715 3.715 0 0 0-.572-1.132 2.6 2.6 0 0 0-.815-.72l.218-.399-.218.398a2.127 2.127 0 0 0-.069-.036l-.727-.363.652-.485c.325-.241.536-.63.536-1.073C6.3 4.086 5.711 3.5 5 3.5zm5.5 3c-.887 0-1.6.713-1.6 1.587 0 .524.256.99.654 1.28l.671.489-.745.365a3.094 3.094 0 0 0-1.06.888 4.28 4.28 0 0 0-.677 1.313 5.08 5.08 0 0 0-.22 1.078h5.954a5.076 5.076 0 0 0-.22-1.078 4.283 4.283 0 0 0-.678-1.313 3.094 3.094 0 0 0-1.059-.888l-.745-.365.67-.489a1.58 1.58 0 0 0 .655-1.28c0-.874-.713-1.587-1.6-1.587z" fill="currentColor" stroke="none"></path></g></symbol><symbol id="human--fill" viewBox="0 0 16 16"><g class="nc-icon-wrapper"><path fill-rule="evenodd" clip-rule="evenodd" d="M9.771 7.422a3 3 0 1 0-3.543 0 5.142 5.142 0 0 0-1.764 1.482 6.885 6.885 0 0 0-1.083 2.109A8.062 8.062 0 0 0 3.015 13c-.017.276.209.5.485.5h9a.478.478 0 0 0 .485-.5 8.06 8.06 0 0 0-.366-1.988 6.886 6.886 0 0 0-1.084-2.108 5.143 5.143 0 0 0-1.764-1.482z" fill="currentColor" stroke="none"></path></g></symbol><symbol id="human" viewBox="0 0 16 16"><g class="nc-icon-wrapper"><path fill-rule="evenodd" clip-rule="evenodd" d="M9.771 7.422a3 3 0 1 0-3.543 0 5.142 5.142 0 0 0-1.764 1.482 6.885 6.885 0 0 0-1.083 2.109A8.062 8.062 0 0 0 3.015 13c-.017.276.209.5.485.5h9a.478.478 0 0 0 .485-.5 8.06 8.06 0 0 0-.366-1.988 6.886 6.886 0 0 0-1.084-2.108 5.143 5.143 0 0 0-1.764-1.482z" stroke="currentColor" fill="none"></path></g></symbol><symbol id="flag-add" viewBox="0 0 16 16"><g class="nc-icon-wrapper"><path d="M12.5 1a.5.5 0 0 0-1 0v2.5H9a.5.5 0 0 0 0 1h2.5V7a.5.5 0 0 0 1 0V4.5H15a.5.5 0 0 0 0-1h-2.5V1z" fill="currentColor" stroke="none"></path><path d="M6.942 2a.558.558 0 1 1 0 1.116H6c-.552 0-1 .5-1 1.116v8.114c0 .54.635.74.888.28.968-1.755 3.256-1.755 4.224 0 .253.46.888.26.888-.28V9a.5.5 0 0 1 1 0v3.346c0 1.665-1.958 2.283-2.74.865-.578-1.047-1.942-1.047-2.52 0-.782 1.418-2.74.8-2.74-.865V4.232C4 2.999 4.895 2 6 2h.942z" fill="currentColor" stroke="none"></path></g></symbol><symbol id="heart--fill" viewBox="0 0 16 16"><g class="nc-icon-wrapper"><path d="M7.995 12.664c.13 0 .321-.1.477-.2 2.808-1.809 4.606-3.928 4.606-6.073 0-1.853-1.281-3.139-2.883-3.139-1 0-1.748.553-2.2 1.376C7.553 3.805 6.8 3.252 5.8 3.252c-1.607 0-2.888 1.286-2.888 3.14 0 2.144 1.803 4.263 4.606 6.071.156.1.346.201.477.201z" fill="currentColor" stroke="none"></path></g></symbol><symbol id="filter--fill-1" viewBox="0 0 16 16"><g class="nc-icon-wrapper"><path fill-rule="evenodd" clip-rule="evenodd" d="M8 15A7 7 0 1 0 8 1a7 7 0 0 0 0 14zM3.75 4.5a.75.75 0 0 0 0 1.5h8.5a.75.75 0 0 0 0-1.5h-8.5zM6 11.25a.75.75 0 0 1 .75-.75h2.5a.75.75 0 0 1 0 1.5h-2.5a.75.75 0 0 1-.75-.75zM5.75 7.5a.75.75 0 0 0 0 1.5h4.5a.75.75 0 0 0 0-1.5h-4.5z" fill="currentColor" stroke="none"></path></g></symbol><symbol id="headphone" viewBox="0 0 16 16"><g class="nc-icon-wrapper"><path d="M8 3a4 4 0 0 0-3.903 3.124c.531.23.903.76.903 1.376v2a1.5 1.5 0 0 1-3 0v-2a1.5 1.5 0 0 1 1.09-1.443 5 5 0 0 1 9.82 0A1.5 1.5 0 0 1 14 7.5v2a1.5 1.5 0 0 1-1.17 1.464c-.083.311-.194.59-.33.836-.326.59-.787.973-1.3 1.196-.455.198-.94.266-1.402.257a1.5 1.5 0 1 1 .182-1.001c.284-.01.566-.062.82-.173.32-.14.61-.375.825-.763.075-.136.143-.294.2-.476A1.5 1.5 0 0 1 11 9.5v-2a1.5 1.5 0 0 1 .903-1.376A4.002 4.002 0 0 0 8 3z" fill="currentColor" stroke="none"></path></g></symbol><symbol id="filter-1" viewBox="0 0 16 16"><g class="nc-icon-wrapper"><path d="M4 5.333c0-.368.298-.666.667-.666h6.666a.667.667 0 1 1 0 1.333H4.667A.667.667 0 0 1 4 5.333z" fill="currentColor" stroke="none"></path><path d="M6.667 11.667c0-.368.298-.667.666-.667h1.334a.667.667 0 0 1 0 1.333H7.333a.667.667 0 0 1-.666-.666z" fill="currentColor" stroke="none"></path><path d="M5.333 8.497c0-.369.299-.667.667-.667h4a.667.667 0 1 1 0 1.333H6a.667.667 0 0 1-.667-.666z" fill="currentColor" stroke="none"></path><path fill-rule="evenodd" clip-rule="evenodd" d="M8 14A6 6 0 1 0 8 2a6 6 0 0 0 0 12zm0 1A7 7 0 1 0 8 1a7 7 0 0 0 0 14z" fill="currentColor" stroke="none"></path></g></symbol><symbol id="gear-check" viewBox="0 0 16 16"><g class="nc-icon-wrapper"><path d="M10.354 7.354a.5.5 0 0 0-.708-.708L7.5 8.793 6.354 7.646a.5.5 0 1 0-.708.708L6.97 9.677a.75.75 0 0 0 1.06 0l2.324-2.323z" fill="currentColor" stroke="none"></path><path fill-rule="evenodd" clip-rule="evenodd" d="M6.538 2.882A.692.692 0 0 1 7.203 2h1.552a.83.83 0 0 1 .822.95c-.074.517.595.787.901.363a.804.804 0 0 1 1.221-.099l1.194 1.194c.28.28.21.75-.139.937-.458.246-.283.94.237.94.552 0 1.009.448 1.009 1v1.46a.84.84 0 0 1-.96.832c-.519-.074-.787.599-.36.903a.804.804 0 0 1 .103 1.223l-1.084 1.083a.804.804 0 0 1-1.221-.099c-.306-.424-.975-.154-.9.364a.83.83 0 0 1-.823.949h-1.51a.83.83 0 0 1-.822-.95c.074-.517-.595-.787-.901-.363a.804.804 0 0 1-1.221.099l-1.197-1.197a.59.59 0 0 1 .135-.935c.456-.248.28-.94-.238-.94a1 1 0 0 1-1.001-1v-1.47a.83.83 0 0 1 .95-.821c.517.074.787-.595.363-.901a.804.804 0 0 1-.099-1.221l1.004-1.004a1 1 0 0 1 1.456.044l.008.01c.353.398 1.002.042.856-.47zM4.934 4.013c.965 1.09 2.668.3 2.628-1.013H8.57c-.037 1.35 1.65 2.042 2.573 1.073l.716.716c-.809.892-.238 2.497 1.13 2.497h.004L13 7.29v1.281c-1.36-.045-2.055 1.655-1.078 2.578l-.778.778c-.924-.97-2.61-.277-2.573 1.073H7.429c.037-1.35-1.65-2.042-2.573-1.073l-.721-.721c.804-.893.23-2.492-1.135-2.492V7.43c1.35.037 2.042-1.65 1.073-2.573l.852-.852.009.01z" fill="currentColor" stroke="none"></path></g></symbol><symbol id="gear" viewBox="0 0 16 16"><g class="nc-icon-wrapper"><path fill-rule="evenodd" clip-rule="evenodd" d="M6.538 2.882A.692.692 0 0 1 7.203 2h1.552a.83.83 0 0 1 .822.95c-.074.517.595.787.901.363a.804.804 0 0 1 1.221-.099l1.194 1.194c.28.28.21.75-.139.937-.458.246-.283.94.237.94.552 0 1.009.448 1.009 1v1.46a.84.84 0 0 1-.96.832c-.519-.074-.787.599-.36.903a.804.804 0 0 1 .103 1.223l-1.084 1.083a.804.804 0 0 1-1.221-.099c-.306-.424-.975-.154-.9.364a.83.83 0 0 1-.823.949h-1.51a.83.83 0 0 1-.822-.95c.074-.517-.595-.787-.901-.363a.804.804 0 0 1-1.221.099l-1.197-1.197a.59.59 0 0 1 .135-.935c.456-.248.28-.94-.238-.94a1 1 0 0 1-1.001-1v-1.47a.83.83 0 0 1 .95-.821c.517.074.787-.595.363-.901a.804.804 0 0 1-.099-1.221l1.004-1.004a1 1 0 0 1 1.456.044l.008.01c.353.398 1.002.042.856-.47zM4.934 4.013c.965 1.09 2.668.3 2.628-1.013H8.57c-.037 1.35 1.65 2.042 2.573 1.073l.716.716c-.809.892-.238 2.497 1.13 2.497h.004L13 7.29v1.281c-1.36-.045-2.055 1.655-1.078 2.578l-.778.778c-.924-.97-2.61-.277-2.573 1.073H7.429c.037-1.35-1.65-2.042-2.573-1.073l-.721-.721c.804-.893.23-2.492-1.135-2.492V7.43c1.35.037 2.042-1.65 1.073-2.573l.852-.852.009.01z" fill="currentColor" stroke="none"></path><path fill-rule="evenodd" clip-rule="evenodd" d="M8 10a2 2 0 1 0 0-4 2 2 0 0 0 0 4zm0 1a3 3 0 1 0 0-6 3 3 0 0 0 0 6z" fill="currentColor" stroke="none"></path></g></symbol><symbol id="fries" viewBox="0 0 16 16"><g class="nc-icon-wrapper"><path d="M3 4h10" stroke="currentColor" fill="none"></path><path d="M3 12h10" stroke="currentColor" fill="none"></path><path d="M3 8h7" stroke="currentColor" fill="none"></path></g></symbol><symbol id="flag-new" viewBox="0 0 16 16"><g class="nc-icon-wrapper"><path d="M14.03 3.03a.75.75 0 0 0-1.06-1.06l-.5.5a.75.75 0 0 0 1.06 1.06l.5-.5z" fill="currentColor" stroke="none"></path><path d="M12.03 5.03a.75.75 0 0 0-1.06-1.06l-4.5 4.5a.75.75 0 0 0 1.06 1.06l4.5-4.5z" fill="currentColor" stroke="none"></path><path d="M8.442 2a.558.558 0 1 1 0 1.116H6c-.552 0-1 .5-1 1.116v8.114c0 .54.635.74.888.28.968-1.755 3.256-1.755 4.224 0 .253.46.888.26.888-.28V8.5a.5.5 0 0 1 1 0v3.846c0 1.665-1.958 2.283-2.74.865-.578-1.047-1.942-1.047-2.52 0-.782 1.418-2.74.8-2.74-.865V4.232C4 2.999 4.895 2 6 2h2.442z" fill="currentColor" stroke="none"></path></g></symbol><symbol id="flag--fill" viewBox="0 0 16 16"><g class="nc-icon-wrapper"><path fill-rule="evenodd" clip-rule="evenodd" d="M6 2C4.895 2 4 3 4 4.232v8.114c0 1.665 1.958 2.283 2.74.865.578-1.047 1.942-1.047 2.52 0 .782 1.418 2.74.8 2.74-.865V4.232C12 2.999 11.105 2 10 2H6z" fill="currentColor" stroke="none"></path></g></symbol><symbol id="eye--fill" viewBox="0 0 16 16"><g class="nc-icon-wrapper"><path fill-rule="evenodd" clip-rule="evenodd" d="M8 12c3.003 0 5.565-2.556 6.558-3.696a.863.863 0 0 0 .033-1.103C13.62 5.939 11.037 3 8 3 4.963 3 2.379 5.94 1.41 7.2a.863.863 0 0 0 .032 1.104C2.436 9.444 4.997 12 8 12zm0-1.5a3 3 0 1 0 0-6 3 3 0 0 0 0 6z" fill="currentColor" stroke="none"></path><path d="M9.5 7.5a1.5 1.5 0 1 1-3 0 1.5 1.5 0 0 1 3 0z" fill="currentColor" stroke="none"></path></g></symbol><symbol id="flag" viewBox="0 0 16 16"><g class="nc-icon-wrapper"><path fill-rule="evenodd" clip-rule="evenodd" d="M10 3.116H6c-.552 0-1 .5-1 1.116v8.114c0 .54.635.74.888.28.968-1.755 3.256-1.755 4.224 0 .253.46.888.26.888-.28V4.232c0-.617-.448-1.116-1-1.116zM6 2C4.895 2 4 3 4 4.232v8.114c0 1.665 1.958 2.283 2.74.865.578-1.047 1.942-1.047 2.52 0 .782 1.418 2.74.8 2.74-.865V4.232C12 2.999 11.105 2 10 2H6z" fill="currentColor" stroke="none"></path></g></symbol><symbol id="dots-horizontal" viewBox="0 0 16 16"><g class="nc-icon-wrapper"><path d="M5 8a1 1 0 1 1-2 0 1 1 0 0 1 2 0z" fill="currentColor" stroke="none"></path><path d="M9 8a1 1 0 1 1-2 0 1 1 0 0 1 2 0z" fill="currentColor" stroke="none"></path><path d="M13 8a1 1 0 1 1-2 0 1 1 0 0 1 2 0z" fill="currentColor" stroke="none"></path></g></symbol><symbol id="filter--fill" viewBox="0 0 16 16"><g class="nc-icon-wrapper"><path fill-rule="evenodd" clip-rule="evenodd" d="M6 8.429L2.255 3.614A1 1 0 0 1 3.045 2h9.91a1 1 0 0 1 .79 1.614L10 8.429v3.958a1 1 0 0 1-.384.788l-2 1.563A1 1 0 0 1 6 13.95V8.429z" fill="currentColor" stroke="none"></path></g></symbol><symbol id="clipboard--fill" viewBox="0 0 16 16"><g class="nc-icon-wrapper"><path fill-rule="evenodd" clip-rule="evenodd" d="M5 2a2 2 0 0 0-2 2v4.889a2 2 0 0 0 2 2h3.111a2 2 0 0 0 2-2V4a2 2 0 0 0-2-2H5z" fill="currentColor" stroke="none"></path><path fill-rule="evenodd" clip-rule="evenodd" d="M5.333 9.889v1.444a2 2 0 0 0 2 2h3.111a2 2 0 0 0 2-2V6.444a2 2 0 0 0-2-2H9.111v1h1.333a1 1 0 0 1 1 1v4.89a1 1 0 0 1-1 1h-3.11a1 1 0 0 1-1-1V9.888h-1z" fill="currentColor" stroke="none"></path></g></symbol><symbol id="filter" viewBox="0 0 16 16"><g class="nc-icon-wrapper"><path d="M6.5 8.429v-.172l-.105-.135L2.65 3.307a.5.5 0 0 1 .395-.807h9.91a.5.5 0 0 1 .395.807L9.605 8.122l-.105.135v4.13a.5.5 0 0 1-.192.394l-2 1.563a.5.5 0 0 1-.808-.394V8.429z" stroke="currentColor" fill="none"></path></g></symbol><symbol id="code" viewBox="0 0 16 16"><g class="nc-icon-wrapper"><path d="M9.579 4.127a.5.5 0 0 0-.968-.254l-2.095 8a.5.5 0 0 0 .968.254l2.095-8z" fill="currentColor" stroke="none"></path><path d="M5.048 10.565a.517.517 0 0 1-.696 0l-2.4-2.222a.463.463 0 0 1 0-.686l2.4-2.222a.517.517 0 0 1 .696 0 .463.463 0 0 1 0 .686L3.018 8l2.03 1.879a.463.463 0 0 1 0 .686z" fill="currentColor" stroke="none"></path><path d="M10.952 5.435a.517.517 0 0 1 .696 0l2.4 2.222a.463.463 0 0 1 0 .686l-2.4 2.222a.517.517 0 0 1-.696 0 .463.463 0 0 1 0-.686L12.982 8l-2.03-1.88a.463.463 0 0 1 0-.685z" fill="currentColor" stroke="none"></path></g></symbol><symbol id="eye" viewBox="0 0 16 16"><g class="nc-icon-wrapper"><path d="M8 12.25c1.363 0 2.593-.593 3.562-1.275a11.868 11.868 0 0 0 2.144-1.982c.376-.443.392-1.08.046-1.542-.407-.543-1.158-1.455-2.135-2.236C10.647 4.44 9.396 3.75 8 3.75s-2.646.69-3.617 1.465c-.977.781-1.728 1.693-2.135 2.236-.346.462-.33 1.1.046 1.542a11.87 11.87 0 0 0 2.144 1.982c.969.682 2.2 1.275 3.562 1.275zM9.936 8c0 1.117-.88 2-1.936 2-1.057 0-1.936-.883-1.936-2S6.944 6 8 6c1.057 0 1.936.883 1.936 2zM8 9.75c.961 0 1.718-.796 1.718-1.75S8.96 6.25 8 6.25 6.282 7.046 6.282 8 7.04 9.75 8 9.75z" stroke="currentColor" fill="none"></path></g></symbol><symbol id="enter" viewBox="0 0 16 16"><g class="nc-icon-wrapper"><path d="M9.468 3.5a.5.5 0 0 0 0 1H10.5a.5.5 0 0 1 .5.5v3a.5.5 0 0 1-.5.5H4.352l2.473-2.12a.5.5 0 1 0-.65-.76L3.56 7.861a1.5 1.5 0 0 0 0 2.278l2.615 2.24a.5.5 0 1 0 .65-.759L4.352 9.5H10.5A1.5 1.5 0 0 0 12 8V5a1.5 1.5 0 0 0-1.5-1.5H9.468z" fill="currentColor" stroke="none"></path></g></symbol><symbol id="emoticone--fill" viewBox="0 0 16 16"><g class="nc-icon-wrapper"><path fill-rule="evenodd" clip-rule="evenodd" d="M8 14A6 6 0 1 0 8 2a6 6 0 0 0 0 12zm2-6.45a1 1 0 1 0 0-2 1 1 0 0 0 0 2zm-3-1a1 1 0 1 1-2 0 1 1 0 0 1 2 0zm-1.5 2.5a.5.5 0 0 0 0 1h5a.5.5 0 0 0 0-1h-5z" fill="currentColor" stroke="none"></path></g></symbol><symbol id="emoticone" viewBox="0 0 16 16"><g class="nc-icon-wrapper"><circle cx="8" cy="8" r="5.5" stroke="currentColor" fill="none"></circle><circle cx="10" cy="6.55" r="1" fill="currentColor" stroke="none"></circle><circle cx="6" cy="6.55" r="1" fill="currentColor" stroke="none"></circle><path d="M5.5 9.55h5" stroke="currentColor" fill="none"></path></g></symbol><symbol id="edit" viewBox="0 0 16 16"><g class="nc-icon-wrapper"><path d="M5.116 9.116a1.25 1.25 0 0 0 1.768 1.768L5.116 9.116zm6.268-2.732l.884-.884L10.5 3.732l-.884.884 1.768 1.768zm-4.5 4.5l4.5-4.5-1.768-1.768-4.5 4.5 1.768 1.768z" fill="currentColor" stroke="none"></path><path d="M14.884 2.884a1.25 1.25 0 0 0-1.768-1.768l1.768 1.768zm-2.768-.768L11.232 3 13 4.768l.884-.884-1.768-1.768zm1-1l-1 1 1.768 1.768 1-1-1.768-1.768z" fill="currentColor" stroke="none"></path><path d="M14 6v6a2 2 0 0 1-2 2H4a2 2 0 0 1-2-2V4a2 2 0 0 1 2-2h6" stroke="currentColor" fill="none"></path></g></symbol><symbol id="download" viewBox="0 0 16 16"><g class="nc-icon-wrapper"><path fill-rule="evenodd" clip-rule="evenodd" d="M8 3.5a.5.5 0 0 1 .5.5v4.793l1.646-1.647a.5.5 0 0 1 .708.708l-2.5 2.5a.5.5 0 0 1-.708 0l-2.5-2.5a.5.5 0 1 1 .708-.708L7.5 8.793V4a.5.5 0 0 1 .5-.5zm-4 6a.5.5 0 0 1 .5.5v2.5h7V10a.5.5 0 0 1 1 0v3a.5.5 0 0 1-.5.5H4a.5.5 0 0 1-.5-.5v-3a.5.5 0 0 1 .5-.5z" fill="currentColor" stroke="none"></path></g></symbol><symbol id="dots-vertical" viewBox="0 0 16 16"><g class="nc-icon-wrapper"><path d="M8 11a1 1 0 1 1 0 2 1 1 0 0 1 0-2z" fill="currentColor" stroke="none"></path><path d="M8 7a1 1 0 1 1 0 2 1 1 0 0 1 0-2z" fill="currentColor" stroke="none"></path><path d="M8 3a1 1 0 1 1 0 2 1 1 0 0 1 0-2z" fill="currentColor" stroke="none"></path></g></symbol><symbol id="archived" viewBox="0 0 16 16"><g class="nc-icon-wrapper"><path fill-rule="evenodd" clip-rule="evenodd" d="M3.5 8a4.5 4.5 0 1 0 9 0 4.5 4.5 0 0 0-9 0zM2 8a6 6 0 1 0 12 0A6 6 0 0 0 2 8z" fill="currentColor" stroke="none"></path><path d="M9.5 6.5l-3 3" stroke="currentColor" fill="none"></path></g></symbol><symbol id="done" viewBox="0 0 16 16"><g class="nc-icon-wrapper"><path d="M5 8a3 3 0 1 0 6 0 3 3 0 0 0-6 0z" fill="currentColor" stroke="none"></path><path fill-rule="evenodd" clip-rule="evenodd" d="M8 14A6 6 0 1 1 8 2a6 6 0 0 1 0 12zm0-1.5a4.5 4.5 0 1 1 0-9 4.5 4.5 0 0 1 0 9z" fill="currentColor" stroke="none"></path></g></symbol><symbol id="detail" viewBox="0 0 16 16"><g class="nc-icon-wrapper"><circle cx="8" cy="8" r="5.5" stroke="currentColor" fill="none"></circle><rect x="7.25" y="4.5" width="1.5" height="7" rx=".75" fill="currentColor" stroke="none"></rect></g></symbol><symbol id="dashboard--fill" viewBox="0 0 16 16"><g class="nc-icon-wrapper"><rect x="2" y="2" width="5" height="5" rx="2.5" fill="currentColor" stroke="none"></rect><rect x="2" y="9" width="5" height="5" rx="2.5" fill="currentColor" stroke="none"></rect><rect x="9" y="2" width="5" height="5" rx="2.5" fill="currentColor" stroke="none"></rect><rect x="9" y="9" width="5" height="5" rx="2.5" fill="currentColor" stroke="none"></rect></g></symbol><symbol id="dashboard" viewBox="0 0 16 16"><g class="nc-icon-wrapper"><rect x="2.5" y="2.5" width="4" height="4" rx="2" stroke="currentColor" fill="none"></rect><rect x="2.5" y="9.5" width="4" height="4" rx="2" stroke="currentColor" fill="none"></rect><rect x="9.5" y="2.5" width="4" height="4" rx="2" stroke="currentColor" fill="none"></rect><rect x="9.5" y="9.5" width="4" height="4" rx="2" stroke="currentColor" fill="none"></rect></g></symbol><symbol id="cross-2" viewBox="0 0 16 16"><g class="nc-icon-wrapper"><path fill-rule="evenodd" clip-rule="evenodd" d="M4.646 4.646a.5.5 0 0 1 .708 0L8 7.293l2.646-2.647a.5.5 0 0 1 .708.708L8.707 8l2.647 2.646a.5.5 0 0 1-.708.708L8 8.707l-2.646 2.647a.5.5 0 0 1-.708-.708L7.293 8 4.646 5.354a.5.5 0 0 1 0-.708z" fill="currentColor" stroke="none"></path></g></symbol><symbol id="cross-1" viewBox="0 0 16 16"><g class="nc-icon-wrapper"><path fill-rule="evenodd" clip-rule="evenodd" d="M2.646 2.646a.5.5 0 0 1 .708 0L8 7.293l4.646-4.647a.5.5 0 0 1 .708.708L8.707 8l4.647 4.646a.5.5 0 0 1-.708.708L8 8.707l-4.646 4.647a.5.5 0 0 1-.708-.708L7.293 8 2.646 3.354a.5.5 0 0 1 0-.708z" fill="currentColor" stroke="none"></path></g></symbol><symbol id="code-1" viewBox="0 0 16 16"><g class="nc-icon-wrapper"><path d="M9.5 3.5l-3 9" stroke="currentColor" fill="none"></path><path d="M4 5L2.185 7.723a.5.5 0 0 0 0 .554L4 11" stroke="currentColor" fill="none"></path><path d="M12 5l1.815 2.723a.5.5 0 0 1 0 .554L12 11" stroke="currentColor" fill="none"></path></g></symbol><symbol id="case" viewBox="0 0 16 16"><g class="nc-icon-wrapper"><path d="M2.5 6A1.5 1.5 0 0 1 4 4.5h8A1.5 1.5 0 0 1 13.5 6v6a1.5 1.5 0 0 1-1.5 1.5H4A1.5 1.5 0 0 1 2.5 12V6z" stroke="currentColor" fill="none"></path><path d="M2.717 6.15A1.5 1.5 0 0 1 4.21 4.5h7.58a1.5 1.5 0 0 1 1.493 1.65l-.1 1A1.5 1.5 0 0 1 11.69 8.5H4.31a1.5 1.5 0 0 1-1.493-1.35l-.1-1z" stroke="currentColor" fill="none"></path><path d="M5.5 4A1.5 1.5 0 0 1 7 2.5h2A1.5 1.5 0 0 1 10.5 4v.5h-5V4z" stroke="currentColor" fill="none"></path></g></symbol><symbol id="close" viewBox="0 0 16 16"><g class="nc-icon-wrapper"><path fill-rule="evenodd" clip-rule="evenodd" d="M12.354 14.354a.5.5 0 0 1-.708 0L8 10.707l-3.646 3.647a.5.5 0 0 1-.708-.708l4-4a.5.5 0 0 1 .708 0l4 4a.5.5 0 0 1 0 .708z" fill="currentColor" stroke="none"></path><path fill-rule="evenodd" clip-rule="evenodd" d="M3.646 1.646a.5.5 0 0 1 .708 0L8 5.293l3.646-3.647a.5.5 0 0 1 .708.708l-4 4a.5.5 0 0 1-.708 0l-4-4a.5.5 0 0 1 0-.708z" fill="currentColor" stroke="none"></path></g></symbol><symbol id="clock" viewBox="0 0 16 16"><g class="nc-icon-wrapper"><circle cx="8" cy="8" r="5.5" stroke="currentColor" fill="none"></circle><path d="M7.5 5.5v3A.5.5 0 0 0 8 9h2.5" stroke="currentColor" fill="none"></path></g></symbol><symbol id="arrow-down" viewBox="0 0 16 16"><g class="nc-icon-wrapper"><path fill-rule="evenodd" clip-rule="evenodd" d="M3.613 10.41a.5.5 0 0 1 .704-.07L7.5 12.945V2a.5.5 0 0 1 1 0v10.945l3.183-2.605a.5.5 0 1 1 .634.774l-4 3.273a.5.5 0 0 1-.634 0l-4-3.273a.5.5 0 0 1-.07-.703z" fill="currentColor" stroke="none"></path></g></symbol><symbol id="clipboard" viewBox="0 0 16 16"><g class="nc-icon-wrapper"><path fill-rule="evenodd" clip-rule="evenodd" d="M8.111 3H5a1 1 0 0 0-1 1v4.889a1 1 0 0 0 1 1h3.111a1 1 0 0 0 1-1V4a1 1 0 0 0-1-1zM5 2a2 2 0 0 0-2 2v4.889a2 2 0 0 0 2 2h3.111a2 2 0 0 0 2-2V4a2 2 0 0 0-2-2H5z" fill="currentColor" stroke="none"></path><path fill-rule="evenodd" clip-rule="evenodd" d="M5.333 9.889v1.444a2 2 0 0 0 2 2h3.111a2 2 0 0 0 2-2V6.444a2 2 0 0 0-2-2H9.111v1h1.333a1 1 0 0 1 1 1v4.89a1 1 0 0 1-1 1h-3.11a1 1 0 0 1-1-1V9.888h-1z" fill="currentColor" stroke="none"></path></g></symbol><symbol id="chevron-up" viewBox="0 0 16 16"><g class="nc-icon-wrapper"><path fill-rule="evenodd" clip-rule="evenodd" d="M12.354 10.354a.5.5 0 0 1-.708 0L8 6.707l-3.646 3.647a.5.5 0 0 1-.708-.708l4-4a.5.5 0 0 1 .708 0l4 4a.5.5 0 0 1 0 .708z" fill="currentColor" stroke="none"></path></g></symbol><symbol id="chevron-right" viewBox="0 0 16 16"><g class="nc-icon-wrapper"><path fill-rule="evenodd" clip-rule="evenodd" d="M5.646 12.354a.5.5 0 0 1 0-.708L9.293 8 5.646 4.354a.5.5 0 1 1 .708-.708l4 4a.5.5 0 0 1 0 .708l-4 4a.5.5 0 0 1-.708 0z" fill="currentColor" stroke="none"></path></g></symbol><symbol id="chevron-left" viewBox="0 0 16 16"><g class="nc-icon-wrapper"><path fill-rule="evenodd" clip-rule="evenodd" d="M10.354 3.646a.5.5 0 0 1 0 .708L6.707 8l3.647 3.646a.5.5 0 0 1-.708.708l-4-4a.5.5 0 0 1 0-.708l4-4a.5.5 0 0 1 .708 0z" fill="currentColor" stroke="none"></path></g></symbol><symbol id="chevron-down" viewBox="0 0 16 16"><g class="nc-icon-wrapper"><path fill-rule="evenodd" clip-rule="evenodd" d="M3.646 5.646a.5.5 0 0 1 .708 0L8 9.293l3.646-3.647a.5.5 0 0 1 .708.708l-4 4a.5.5 0 0 1-.708 0l-4-4a.5.5 0 0 1 0-.708z" fill="currentColor" stroke="none"></path></g></symbol><symbol id="check" viewBox="0 0 16 16"><g class="nc-icon-wrapper"><path fill-rule="evenodd" clip-rule="evenodd" d="M12.33 4.624a.5.5 0 0 1 .046.705l-5.245 6a.5.5 0 0 1-.757-.004L3.62 8.111a.5.5 0 1 1 .76-.65l2.378 2.775 4.866-5.565a.5.5 0 0 1 .705-.047z" fill="currentColor" stroke="none"></path></g></symbol><symbol id="box--fill" viewBox="0 0 16 16"><g class="nc-icon-wrapper"><path fill-rule="evenodd" clip-rule="evenodd" d="M7.557 1.615a.913.913 0 0 1 .886 0l5 2.742c.341.187.557.571.557.993v4.843c0 .396-.19.762-.5.96l-5 3.199a.916.916 0 0 1-1 0l-5-3.199c-.31-.198-.5-.564-.5-.96V5.35c0-.421.216-.806.557-.993l5-2.742zm.905 6.71v4.88l4.115-2.633c.31-.198.5-.564.5-.96V5.794l-4.615 2.53z" fill="currentColor" stroke="none"></path></g></symbol><symbol id="burger" viewBox="0 0 16 16"><g class="nc-icon-wrapper"><path fill-rule="evenodd" clip-rule="evenodd" d="M2.5 4a.5.5 0 0 1 .5-.5h10a.5.5 0 0 1 0 1H3a.5.5 0 0 1-.5-.5zm0 4a.5.5 0 0 1 .5-.5h10a.5.5 0 0 1 0 1H3a.5.5 0 0 1-.5-.5zm0 4a.5.5 0 0 1 .5-.5h10a.5.5 0 0 1 0 1H3a.5.5 0 0 1-.5-.5z" fill="currentColor" stroke="none"></path></g></symbol><symbol id="bulb-gear" viewBox="0 0 16 16"><g class="nc-icon-wrapper"><path fill-rule="evenodd" clip-rule="evenodd" d="M10.262 6a2.262 2.262 0 1 1-4.524 0 2.262 2.262 0 0 1 4.524 0zm-.833 0A1.429 1.429 0 1 1 6.57 6 1.429 1.429 0 0 1 9.43 6z" fill="currentColor" stroke="none"></path><path fill-rule="evenodd" clip-rule="evenodd" d="M10.5 10.176a.668.668 0 0 0 .583-.188l.902-.902a.67.67 0 0 0-.085-1.02c-.356-.253-.132-.813.3-.752a.7.7 0 0 0 .8-.693V5.405a.84.84 0 0 0-.841-.834c-.433 0-.579-.579-.197-.783a.492.492 0 0 0 .115-.782l-.994-.994a.67.67 0 0 0-1.018.082c-.255.354-.813.129-.75-.303A.692.692 0 0 0 8.628 1H7.336a.576.576 0 0 0-.555.735c.122.426-.418.723-.712.39l-.007-.008a.833.833 0 0 0-1.214-.037l-.836.837a.67.67 0 0 0 .082 1.018c.354.255.129.813-.303.75A.692.692 0 0 0 3 5.372v1.224c0 .46.374.834.834.834.432 0 .578.576.199.782a.491.491 0 0 0-.113.78l.997.997c.16.16.379.221.583.188V11a1 1 0 0 0 1 1h3a1 1 0 0 0 1-1v-.824zM7.635 1.833c.034 1.094-1.386 1.754-2.19.845l-.007-.008-.71.71c.807.77.23 2.175-.895 2.144v1.071c1.138 0 1.616 1.332.946 2.077l.601.6c.122-.128.26-.221.407-.283.303-.207.713.198.713.678V10a1 1 0 0 0 1 1h1a1 1 0 0 0 1-1v-.333c0-.48.41-.885.713-.678.146.062.285.155.407.284l.649-.649c-.815-.77-.236-2.186.898-2.148V5.409l-.005-.004h-.003c-1.14 0-1.616-1.338-.942-2.08l-.597-.598c-.77.808-2.175.231-2.144-.894h-.841z" fill="currentColor" stroke="none"></path><path d="M9.5 12.5c.276 0 .507.233.393.485-.098.214-.26.412-.479.576C9.04 13.842 8.53 14 8 14c-.53 0-1.04-.158-1.414-.44a1.514 1.514 0 0 1-.479-.575c-.114-.252.117-.485.393-.485h3z" fill="currentColor" stroke="none"></path></g></symbol><symbol id="bulb--fill" viewBox="0 0 16 16"><g class="nc-icon-wrapper"><path fill-rule="evenodd" clip-rule="evenodd" d="M10.5 10.905c0-.375.214-.711.525-.921C12.225 9.172 13 7.889 13 6.444 13 3.99 10.761 2 8 2S3 3.99 3 6.444c0 1.445.775 2.728 1.975 3.54.31.21.525.546.525.92V11a1 1 0 0 0 1 1h3a1 1 0 0 0 1-1v-.095z" fill="currentColor" stroke="none"></path><path d="M9.893 12.985c.114-.252-.117-.485-.393-.485h-3c-.276 0-.507.233-.393.485.098.214.26.412.479.576C6.96 13.842 7.47 14 8 14c.53 0 1.04-.158 1.414-.44.218-.163.381-.36.479-.575z" fill="currentColor" stroke="none"></path></g></symbol><symbol id="bulb" viewBox="0 0 16 16"><g class="nc-icon-wrapper"><path fill-rule="evenodd" clip-rule="evenodd" d="M10.5 10.905c0-.375.214-.711.525-.921C12.225 9.172 13 7.889 13 6.444 13 3.99 10.761 2 8 2S3 3.99 3 6.444c0 1.445.775 2.728 1.975 3.54.31.21.525.546.525.92V11a1 1 0 0 0 1 1h3a1 1 0 0 0 1-1v-.095zm1.5-4.46c0 1.067-.571 2.058-1.535 2.71-.53.358-.965.98-.965 1.75V11h-3v-.095c0-.77-.436-1.392-.965-1.75C4.571 8.503 4 7.512 4 6.445 4 4.65 5.677 3 8 3s4 1.65 4 3.444z" fill="currentColor" stroke="none"></path><path d="M9.893 12.985c.114-.252-.117-.485-.393-.485h-3c-.276 0-.507.233-.393.485.098.214.26.412.479.576C6.96 13.842 7.47 14 8 14c.53 0 1.04-.158 1.414-.44.218-.163.381-.36.479-.575z" fill="currentColor" stroke="none"></path></g></symbol><symbol id="bubble--fill" viewBox="0 0 16 16"><g class="nc-icon-wrapper"><path fill-rule="evenodd" clip-rule="evenodd" d="M1.908 14.418a.25.25 0 0 1-.288-.317L2.64 10.7a6 6 0 1 1 3.256 2.921l-3.988.798z" fill="currentColor" stroke="none"></path></g></symbol><symbol id="bubble" viewBox="0 0 16 16"><g class="nc-icon-wrapper"><path d="M3.119 10.843l.057-.19-.09-.179a5.5 5.5 0 1 1 2.985 2.678l-.133-.05-.14.028-3.58.716.901-3.003z" stroke="currentColor" fill="none"></path></g></symbol><symbol id="bell-notif" viewBox="0 0 16 16"><g class="nc-icon-wrapper"><path fill-rule="evenodd" clip-rule="evenodd" d="M3 13a.5.5 0 0 1 .5-.5h9a.5.5 0 0 1 0 1h-9A.5.5 0 0 1 3 13z" fill="currentColor" stroke="none"></path><path fill-rule="evenodd" clip-rule="evenodd" d="M8 15a.5.5 0 0 1-.5-.5v-1h1v1a.5.5 0 0 1-.5.5z" fill="currentColor" stroke="none"></path><path fill-rule="evenodd" clip-rule="evenodd" d="M8 3.5c-.5 0-.5.276-.5 0v-1a.5.5 0 0 1 1 0v1c0 .276 0 0-.5 0z" fill="currentColor" stroke="none"></path><path fill-rule="evenodd" clip-rule="evenodd" d="M11 12.5V8.965a3.53 3.53 0 0 0 1 0V12.5h-1zm-3-8l.144.003c.102-.345.256-.667.453-.959A4 4 0 0 0 4 7.5v5h1v-5a3 3 0 0 1 3-3z" fill="currentColor" stroke="none"></path><circle cx="11.5" cy="5.5" r="2.5" fill="currentColor" stroke="none"></circle></g></symbol><symbol id="box" viewBox="0 0 16 16"><g class="nc-icon-wrapper"><path fill-rule="evenodd" clip-rule="evenodd" d="M7.557 1.615a.913.913 0 0 1 .886 0l5 2.742c.341.187.557.571.557.993v4.843c0 .396-.19.762-.5.96l-5 3.199a.916.916 0 0 1-1 0l-5-3.199c-.31-.198-.5-.564-.5-.96V5.35c0-.421.216-.806.557-.993l5-2.742zM2.923 5.794v3.818c0 .396.19.761.5.96l4.115 2.632v-4.88l-4.615-2.53zm5.539 2.53v4.88l4.115-2.633c.31-.197.5-.563.5-.96V5.795l-4.615 2.53zm4.044-3.35L8 7.447l-1.68-.922-1.116-.612-1.71-.937 4.063-2.228a.913.913 0 0 1 .886 0l1.236.677 1.116.612 1.711.939z" fill="currentColor" stroke="none"></path></g></symbol><symbol id="bold" viewBox="0 0 16 16"><g class="nc-icon-wrapper"><path d="M5 7.75h4c1 0 2 1 2 2.5s-1.2 2.5-2.7 2.5H5" stroke="currentColor" fill="none"></path><path d="M5 3.25h3.5c1 0 2 .5 2 2s-1 2.5-2.2 2.5H5" stroke="currentColor" fill="none"></path><path d="M5 3.25v9.5" stroke="currentColor" fill="none"></path></g></symbol><symbol id="bell-notif--fill" viewBox="0 0 16 16"><g class="nc-icon-wrapper"><circle cx="11.5" cy="5.5" r="2.5" fill="currentColor" stroke="none"></circle><path fill-rule="evenodd" clip-rule="evenodd" d="M8.5 3.53V2.5a.5.5 0 0 0-1 0v1.03A4 4 0 0 0 4 7.5v5h-.5a.5.5 0 0 0 0 1h4v1a.5.5 0 0 0 1 0v-1h4a.5.5 0 0 0 0-1H12V8.965a3.5 3.5 0 0 1-3.403-5.42A4.011 4.011 0 0 0 8.5 3.53z" fill="currentColor" stroke="none"></path></g></symbol><symbol id="backspace" viewBox="0 0 16 16"><g class="nc-icon-wrapper"><path fill-rule="evenodd" clip-rule="evenodd" d="M12.5 12H5.835a1 1 0 0 1-.838-.455L2.693 8l2.304-3.545A1 1 0 0 1 5.835 4H12.5a1 1 0 0 1 1 1v6a1 1 0 0 1-1 1zm-6.665 1a2 2 0 0 1-1.677-.91L1.854 8.545a1 1 0 0 1 0-1.09L4.158 3.91A2 2 0 0 1 5.835 3H12.5a2 2 0 0 1 2 2v6a2 2 0 0 1-2 2H5.835z" fill="currentColor" stroke="none"></path><path fill-rule="evenodd" clip-rule="evenodd" d="M7.105 5.605c.14-.14.365-.14.505 0l1.89 1.89 1.89-1.89a.357.357 0 0 1 .505.505L10.005 8l1.89 1.89a.357.357 0 1 1-.505.505L9.5 8.505l-1.89 1.89a.357.357 0 1 1-.505-.505L8.995 8l-1.89-1.89a.357.357 0 0 1 0-.505z" fill="currentColor" stroke="none"></path></g></symbol><symbol id="bell--fill" viewBox="0 0 16 16"><g class="nc-icon-wrapper"><path fill-rule="evenodd" clip-rule="evenodd" d="M8 3.5a4 4 0 0 0-4 4v5h8v-5a4 4 0 0 0-4-4z" fill="currentColor" stroke="none"></path><path fill-rule="evenodd" clip-rule="evenodd" d="M3 13a.5.5 0 0 1 .5-.5h9a.5.5 0 0 1 0 1h-9A.5.5 0 0 1 3 13z" fill="currentColor" stroke="none"></path><path fill-rule="evenodd" clip-rule="evenodd" d="M8 15a.5.5 0 0 1-.5-.5v-1h1v1a.5.5 0 0 1-.5.5z" fill="currentColor" stroke="none"></path><path fill-rule="evenodd" clip-rule="evenodd" d="M8 3.5c-.5 0-.5.276-.5 0v-1a.5.5 0 0 1 1 0v1c0 .276 0 0-.5 0z" fill="currentColor" stroke="none"></path></g></symbol><symbol id="bell" viewBox="0 0 16 16"><g class="nc-icon-wrapper"><path fill-rule="evenodd" clip-rule="evenodd" d="M11 12.5v-5a3 3 0 0 0-6 0v5h6zm-3-9a4 4 0 0 0-4 4v5h8v-5a4 4 0 0 0-4-4z" fill="currentColor" stroke="none"></path><path fill-rule="evenodd" clip-rule="evenodd" d="M3 13a.5.5 0 0 1 .5-.5h9a.5.5 0 0 1 0 1h-9A.5.5 0 0 1 3 13z" fill="currentColor" stroke="none"></path><path fill-rule="evenodd" clip-rule="evenodd" d="M8 15a.5.5 0 0 1-.5-.5v-1h1v1a.5.5 0 0 1-.5.5z" fill="currentColor" stroke="none"></path><path fill-rule="evenodd" clip-rule="evenodd" d="M8 3.5c-.5 0-.5.276-.5 0v-1a.5.5 0 0 1 1 0v1c0 .276 0 0-.5 0z" fill="currentColor" stroke="none"></path></g></symbol><symbol id="backspace--fill" viewBox="0 0 16 16"><g class="nc-icon-wrapper"><path fill-rule="evenodd" clip-rule="evenodd" d="M4.158 12.09a2 2 0 0 0 1.677.91H12.5a2 2 0 0 0 2-2V5a2 2 0 0 0-2-2H5.835a2 2 0 0 0-1.677.91L1.854 7.455a1 1 0 0 0 0 1.09l2.304 3.545zm2.947-6.485c.14-.14.365-.14.505 0l1.89 1.89 1.89-1.89a.357.357 0 0 1 .505.505L10.005 8l1.89 1.89a.357.357 0 1 1-.505.505L9.5 8.505l-1.89 1.89a.357.357 0 1 1-.505-.505L8.995 8l-1.89-1.89a.357.357 0 0 1 0-.505z" fill="currentColor" stroke="none"></path></g></symbol><symbol id="arrow-top-left" viewBox="0 0 16 16"><g class="nc-icon-wrapper"><path fill-rule="evenodd" clip-rule="evenodd" d="M9.397 3.193a.5.5 0 0 1-.447.548l-4.093.409 7.74 7.74a.5.5 0 0 1-.708.706L4.15 4.857 3.742 8.95a.5.5 0 1 1-.995-.1l.514-5.142a.5.5 0 0 1 .448-.448l5.142-.514a.5.5 0 0 1 .547.447z" fill="currentColor" stroke="none"></path></g></symbol><symbol id="arrow-up" viewBox="0 0 16 16"><g class="nc-icon-wrapper"><path fill-rule="evenodd" clip-rule="evenodd" d="M3.613 5.59a.5.5 0 0 0 .704.07L7.5 3.055V14a.5.5 0 0 0 1 0V3.055l3.183 2.605a.5.5 0 1 0 .634-.774l-4-3.273a.5.5 0 0 0-.634 0l-4 3.273a.5.5 0 0 0-.07.703z" fill="currentColor" stroke="none"></path></g></symbol><symbol id="arrow-top-right" viewBox="0 0 16 16"><g class="nc-icon-wrapper"><path fill-rule="evenodd" clip-rule="evenodd" d="M6.603 3.193a.5.5 0 0 0 .447.548l4.093.409-7.74 7.74a.5.5 0 1 0 .708.706l7.74-7.739.408 4.093a.5.5 0 0 0 .995-.1l-.514-5.142a.5.5 0 0 0-.448-.448L7.15 2.746a.5.5 0 0 0-.547.447z" fill="currentColor" stroke="none"></path></g></symbol><symbol id="task" viewBox="0 0 16 16"><g class="nc-icon-wrapper"><rect x="6" y="2.5" width="4" height="4" rx="2" stroke="currentColor" fill="none"></rect><rect x="6" y="9.5" width="4" height="4" rx="2" stroke="currentColor" fill="none"></rect></g></symbol><symbol id="arrow-right" viewBox="0 0 16 16"><g class="nc-icon-wrapper"><path fill-rule="evenodd" clip-rule="evenodd" d="M10.41 3.613a.5.5 0 0 0-.07.704L12.945 7.5H2a.5.5 0 0 0 0 1h10.945l-2.605 3.183a.5.5 0 1 0 .774.634l3.273-4a.5.5 0 0 0 0-.634l-3.273-4a.5.5 0 0 0-.703-.07z" fill="currentColor" stroke="none"></path></g></symbol><symbol id="arrow-left" viewBox="0 0 16 16"><g class="nc-icon-wrapper"><path fill-rule="evenodd" clip-rule="evenodd" d="M5.59 3.613a.5.5 0 0 1 .07.704L3.055 7.5H14a.5.5 0 0 1 0 1H3.055l2.605 3.183a.5.5 0 1 1-.774.634l-3.273-4a.5.5 0 0 1 0-.634l3.273-4a.5.5 0 0 1 .703-.07z" fill="currentColor" stroke="none"></path></g></symbol><symbol id="ticket" viewBox="0 0 16 16"><g class="nc-icon-wrapper"><rect x="6" y="6" width="4" height="4" rx="2" stroke="currentColor" fill="none"></rect></g></symbol><symbol id="arrow-bottom-right" viewBox="0 0 16 16"><g class="nc-icon-wrapper"><path fill-rule="evenodd" clip-rule="evenodd" d="M9.397 12.807a.5.5 0 0 0-.447-.548l-4.093-.409 7.74-7.74a.5.5 0 1 0-.708-.706l-7.74 7.739-.408-4.093a.5.5 0 0 0-.995.1l.514 5.142a.5.5 0 0 0 .448.448l5.142.514a.5.5 0 0 0 .547-.447z" fill="currentColor" stroke="none"></path></g></symbol><symbol id="arrow-bottom-left" viewBox="0 0 16 16"><g class="nc-icon-wrapper"><path fill-rule="evenodd" clip-rule="evenodd" d="M6.603 12.807a.5.5 0 0 1 .447-.548l4.093-.409-7.74-7.74a.5.5 0 0 1 .708-.706l7.74 7.739.408-4.093a.5.5 0 1 1 .995.1l-.514 5.142a.5.5 0 0 1-.448.448l-5.142.514a.5.5 0 0 1-.547-.447z" fill="currentColor" stroke="none"></path></g></symbol><symbol id="underline" viewBox="0 0 16 16"><g class="nc-icon-wrapper"><path d="M4 13.5h8" stroke="currentColor" fill="none"></path><path d="M11.5 3v5.176C11.5 10.5 10 11 8 11" stroke="currentColor" fill="none"></path><path d="M5 3v5.176C5 10.5 6.5 11 8.5 11" stroke="currentColor" fill="none"></path></g></symbol><symbol id="alt" viewBox="0 0 16 16"><g class="nc-icon-wrapper"><path fill-rule="evenodd" clip-rule="evenodd" d="M6.63 4.5H3a.5.5 0 0 1 0-1h3.632c.445 0 .828.297.957.707L9.868 11.5H13a.5.5 0 0 1 0 1H9.868a.998.998 0 0 1-.954-.7l-2.28-7.294s-.002-.004-.005-.006z" fill="currentColor" stroke="none"></path><path fill-rule="evenodd" clip-rule="evenodd" d="M9.5 4a.5.5 0 0 1 .5-.5h3a.5.5 0 0 1 0 1h-3a.5.5 0 0 1-.5-.5z" fill="currentColor" stroke="none"></path></g></symbol><symbol id="accessibility" viewBox="0 0 16 16"><g class="nc-icon-wrapper"><circle cx="8" cy="3.5" r="2" stroke="currentColor" fill="none"></circle><path d="M6.5 6l-.75 8M9.5 6l.75 8M6.5 12h3.375M3.5 6h9" stroke="currentColor" fill="none"></path></g></symbol><symbol id="workflow" viewBox="0 0 16 16"><g class="nc-icon-wrapper"><circle cx="5" cy="5" r="2.5" stroke="currentColor" fill="none"></circle><circle cx="11" cy="11" r="2.5" stroke="currentColor" fill="none"></circle><path d="M5 7.5V9a2 2 0 0 0 2 2h1.5" stroke="currentColor" fill="none"></path></g></symbol><symbol id="wait" viewBox="0 0 16 16"><g class="nc-icon-wrapper"><path fill-rule="evenodd" clip-rule="evenodd" d="M9.171 13.886a6.031 6.031 0 0 1-2.342 0l.291-1.472a4.526 4.526 0 0 0 1.76 0l.291 1.472zm-4.505-.897l.835-1.246a4.532 4.532 0 0 1-1.244-1.244l-1.246.835a6.034 6.034 0 0 0 1.655 1.655zM2.114 9.171l1.472-.291a4.53 4.53 0 0 1 0-1.76L2.114 6.83a6.03 6.03 0 0 0 0 2.342zm.897-4.505l1.246.835a4.533 4.533 0 0 1 1.244-1.244l-.835-1.246a6.033 6.033 0 0 0-1.655 1.655zm3.818-2.552a6.03 6.03 0 0 1 2.342 0L8.88 3.586a4.53 4.53 0 0 0-1.76 0L6.83 2.114zm4.505.897l-.835 1.246c.492.329.915.752 1.244 1.244l1.246-.835a6.034 6.034 0 0 0-1.655-1.655zm2.552 3.818l-1.472.291a4.526 4.526 0 0 1 0 1.76l1.472.291a6.031 6.031 0 0 0 0-2.342zm-.897 4.505l-1.246-.835a4.53 4.53 0 0 1-1.244 1.244l.835 1.246a6.035 6.035 0 0 0 1.655-1.655z" fill="currentColor" stroke="none"></path></g></symbol><symbol id="version" viewBox="0 0 16 16"><g class="nc-icon-wrapper"><path fill-rule="evenodd" clip-rule="evenodd" d="M12 5a1 1 0 1 0 0-2 1 1 0 0 0 0 2zm0 1a2 2 0 1 0 0-4 2 2 0 0 0 0 4z" fill="currentColor" stroke="none"></path><path fill-rule="evenodd" clip-rule="evenodd" d="M12 13a1 1 0 1 0 0-2 1 1 0 0 0 0 2zm0 1a2 2 0 1 0 0-4 2 2 0 0 0 0 4z" fill="currentColor" stroke="none"></path><path fill-rule="evenodd" clip-rule="evenodd" d="M4 5a1 1 0 1 0 0-2 1 1 0 0 0 0 2zm0 1a2 2 0 1 0 0-4 2 2 0 0 0 0 4z" fill="currentColor" stroke="none"></path><path fill-rule="evenodd" clip-rule="evenodd" d="M11.5 11V5.5h1V11h-1z" fill="currentColor" stroke="none"></path><path fill-rule="evenodd" clip-rule="evenodd" d="M7.085 7.645c1.586.273 3.52.108 4.823-.136l.184.982c-1.364.256-3.43.44-5.177.14-.873-.151-1.714-.43-2.348-.926C3.912 7.193 3.5 6.463 3.5 5.5h1c0 .637.255 1.082.683 1.417.45.352 1.108.59 1.902.728z" fill="currentColor" stroke="none"></path></g></symbol><symbol id="upload" viewBox="0 0 16 16"><g class="nc-icon-wrapper"><path fill-rule="evenodd" clip-rule="evenodd" d="M8 3.5a.5.5 0 0 1 .354.146l2.5 2.5a.5.5 0 0 1-.708.708L8.5 5.207V10a.5.5 0 0 1-1 0V5.207L5.854 6.854a.5.5 0 1 1-.708-.708l2.5-2.5A.5.5 0 0 1 8 3.5zm-4 6a.5.5 0 0 1 .5.5v2.5h7V10a.5.5 0 0 1 1 0v3a.5.5 0 0 1-.5.5H4a.5.5 0 0 1-.5-.5v-3a.5.5 0 0 1 .5-.5z" fill="currentColor" stroke="none"></path></g></symbol><symbol id="strikethrough" viewBox="0 0 16 16"><g class="nc-icon-wrapper"><path d="M3 7.75h10" stroke="currentColor" fill="none"></path><path d="M11.5 5.25c-.167-.833-1.1-2.5-3.5-2.5-1.459 0-3.39.236-3.496 2.32-.006.119.005.241.034.358.59 2.447 3.716 2.116 4.832 2.517.09.032.175.07.264.102 1.396.502 1.866 1.29 1.866 2.453 0 1.5-1.5 2.5-3 2.5s-3 0-4-2.5" stroke="currentColor" fill="none"></path></g></symbol></svg>