<svg width="385" height="164" viewBox="0 0 385 164" fill="none" xmlns="http://www.w3.org/2000/svg">
<path fill-rule="evenodd" clip-rule="evenodd" d="M82 132C109.614 132 132 109.614 132 82C132 54.3858 109.614 32 82 32C54.3857 32 32 54.3858 32 82C32 109.614 54.3857 132 82 132ZM64.5635 121.694C76.4729 127.513 88.8789 126.598 92.2732 119.651C95.6677 112.704 88.7651 102.355 76.8557 96.5362C64.9465 90.7172 52.5405 91.6317 49.146 98.5788C45.7517 105.526 52.6543 115.875 64.5635 121.694Z" fill="#006CFF"/>
<path d="M166.496 73.272C166.496 80.44 170.656 84.984 178.592 86.712L186.016 88.376C189.856 89.208 191.456 91.064 191.456 94.2C191.456 98.104 188 100.472 182.56 100.472C177.312 100.472 174.112 98.104 174.048 94.136H165.856C166.048 102.52 172.576 107.832 182.56 107.832C192.864 107.832 199.648 102.2 199.648 93.496C199.648 86.52 195.744 82.424 187.744 80.696L180.384 79.096C176.48 78.2 174.688 76.344 174.688 73.016C174.688 69.112 177.952 66.68 183.008 66.68C187.616 66.68 190.496 69.048 190.688 73.08H198.88C198.624 64.632 192.608 59.384 183.136 59.384C173.28 59.384 166.496 65.08 166.496 73.272ZM216.659 107V81.912H222.803V75.384H216.659V65.528H208.851V75.384H202.771V81.912H208.851V107H216.659ZM236.878 107.832C241.806 107.832 246.094 105.592 247.438 102.328L248.014 107H254.862V87.8C254.862 79.032 249.614 74.424 241.102 74.424C232.526 74.424 226.894 78.904 226.894 85.752H233.55C233.55 82.424 236.11 80.504 240.718 80.504C244.686 80.504 247.246 82.232 247.246 86.52V87.224L237.774 87.928C230.286 88.504 226.062 92.152 226.062 97.976C226.062 103.928 230.158 107.832 236.878 107.832ZM239.438 101.944C235.918 101.944 233.998 100.536 233.998 97.656C233.998 95.096 235.854 93.496 240.718 93.048L247.31 92.536V94.2C247.31 99.064 244.238 101.944 239.438 101.944ZM272.847 107V81.912H278.991V75.384H272.847V65.528H265.039V75.384H258.959V81.912H265.039V107H272.847ZM281.676 91.128C281.676 101.176 287.948 107.832 297.548 107.832C305.804 107.832 311.948 102.776 312.908 95.416H305.036C304.204 98.872 301.452 100.792 297.548 100.792C292.556 100.792 289.484 97.08 289.484 91.128C289.484 85.176 292.812 81.4 297.804 81.4C301.516 81.4 304.14 83.256 305.036 86.84H312.844C312.012 79.224 306.124 74.424 297.484 74.424C288.14 74.424 281.676 81.336 281.676 91.128ZM326.528 107V89.72C326.528 84.984 329.408 81.528 334.336 81.528C338.304 81.528 340.928 84.088 340.928 89.4V107H348.736V87.544C348.736 79.352 344.64 74.424 336.832 74.424C332.288 74.424 328.576 76.408 326.592 79.48V59.384H318.72V107H326.528Z" fill="white"/>
</svg>
