<svg width="102" height="28" viewBox="0 0 102 28" fill="none" xmlns="http://www.w3.org/2000/svg">
<path fill-rule="evenodd" clip-rule="evenodd" d="M12 2C12.8345 2 13.6492 2.08519 14.4357 2.24735L7.009 9.67405C6.08808 10.595 6.08808 12.0881 7.009 13.009C7.92991 13.9299 9.42302 13.9299 10.3439 13.009L19.0585 4.29444C22.0535 6.47635 24 10.0109 24 14C24 20.6274 18.6274 26 12 26C10.8874 26 9.81013 25.8486 8.78773 25.5652L16.3095 18.0435C17.2594 17.0936 17.2594 15.5535 16.3095 14.6036C15.3596 13.6537 13.8195 13.6537 12.8696 14.6036L4.28318 23.1901C1.6644 20.9888 0 17.6888 0 14C0 7.37258 5.37258 2 12 2Z" fill="#006CFF"/>
<path d="M42.7109 17.6055C42.7109 17.2539 42.6562 16.9414 42.5469 16.668C42.4453 16.3945 42.2617 16.1445 41.9961 15.918C41.7305 15.6914 41.3555 15.4727 40.8711 15.2617C40.3945 15.043 39.7852 14.8203 39.043 14.5938C38.2305 14.3438 37.4805 14.0664 36.793 13.7617C36.1133 13.4492 35.5195 13.0898 35.0117 12.6836C34.5039 12.2695 34.1094 11.7969 33.8281 11.2656C33.5469 10.7266 33.4062 10.1055 33.4062 9.40234C33.4062 8.70703 33.5508 8.07422 33.8398 7.50391C34.1367 6.93359 34.5547 6.44141 35.0938 6.02734C35.6406 5.60547 36.2852 5.28125 37.0273 5.05469C37.7695 4.82031 38.5898 4.70312 39.4883 4.70312C40.7539 4.70312 41.8438 4.9375 42.7578 5.40625C43.6797 5.875 44.3867 6.50391 44.8789 7.29297C45.3789 8.08203 45.6289 8.95312 45.6289 9.90625H42.7109C42.7109 9.34375 42.5898 8.84766 42.3477 8.41797C42.1133 7.98047 41.7539 7.63672 41.2695 7.38672C40.793 7.13672 40.1875 7.01172 39.4531 7.01172C38.7578 7.01172 38.1797 7.11719 37.7188 7.32812C37.2578 7.53906 36.9141 7.82422 36.6875 8.18359C36.4609 8.54297 36.3477 8.94922 36.3477 9.40234C36.3477 9.72266 36.4219 10.0156 36.5703 10.2812C36.7188 10.5391 36.9453 10.7812 37.25 11.0078C37.5547 11.2266 37.9375 11.4336 38.3984 11.6289C38.8594 11.8242 39.4023 12.0117 40.0273 12.1914C40.9727 12.4727 41.7969 12.7852 42.5 13.1289C43.2031 13.4648 43.7891 13.8477 44.2578 14.2773C44.7266 14.707 45.0781 15.1953 45.3125 15.7422C45.5469 16.2812 45.6641 16.8945 45.6641 17.582C45.6641 18.3008 45.5195 18.9492 45.2305 19.5273C44.9414 20.0977 44.5273 20.5859 43.9883 20.9922C43.457 21.3906 42.8164 21.6992 42.0664 21.918C41.3242 22.1289 40.4961 22.2344 39.582 22.2344C38.7617 22.2344 37.9531 22.125 37.1562 21.9062C36.3672 21.6875 35.6484 21.3555 35 20.9102C34.3516 20.457 33.8359 19.8945 33.4531 19.2227C33.0703 18.543 32.8789 17.75 32.8789 16.8438H35.8203C35.8203 17.3984 35.9141 17.8711 36.1016 18.2617C36.2969 18.6523 36.5664 18.9727 36.9102 19.2227C37.2539 19.4648 37.6523 19.6445 38.1055 19.7617C38.5664 19.8789 39.0586 19.9375 39.582 19.9375C40.2695 19.9375 40.8438 19.8398 41.3047 19.6445C41.7734 19.4492 42.125 19.1758 42.3594 18.8242C42.5938 18.4727 42.7109 18.0664 42.7109 17.6055ZM53.7969 9.32031V11.3828H46.6484V9.32031H53.7969ZM48.7109 6.21484H51.5352V18.4961C51.5352 18.8867 51.5898 19.1875 51.6992 19.3984C51.8164 19.6016 51.9766 19.7383 52.1797 19.8086C52.3828 19.8789 52.6211 19.9141 52.8945 19.9141C53.0898 19.9141 53.2773 19.9023 53.457 19.8789C53.6367 19.8555 53.7812 19.832 53.8906 19.8086L53.9023 21.9648C53.668 22.0352 53.3945 22.0977 53.082 22.1523C52.7773 22.207 52.4258 22.2344 52.0273 22.2344C51.3789 22.2344 50.8047 22.1211 50.3047 21.8945C49.8047 21.6602 49.4141 21.2812 49.1328 20.7578C48.8516 20.2344 48.7109 19.5391 48.7109 18.6719V6.21484ZM63.125 19.457V13.4102C63.125 12.957 63.043 12.5664 62.8789 12.2383C62.7148 11.9102 62.4648 11.6562 62.1289 11.4766C61.8008 11.2969 61.3867 11.207 60.8867 11.207C60.4258 11.207 60.0273 11.2852 59.6914 11.4414C59.3555 11.5977 59.0938 11.8086 58.9062 12.0742C58.7188 12.3398 58.625 12.6406 58.625 12.9766H55.8125C55.8125 12.4766 55.9336 11.9922 56.1758 11.5234C56.418 11.0547 56.7695 10.6367 57.2305 10.2695C57.6914 9.90234 58.2422 9.61328 58.8828 9.40234C59.5234 9.19141 60.2422 9.08594 61.0391 9.08594C61.9922 9.08594 62.8359 9.24609 63.5703 9.56641C64.3125 9.88672 64.8945 10.3711 65.3164 11.0195C65.7461 11.6602 65.9609 12.4648 65.9609 13.4336V19.0703C65.9609 19.6484 66 20.168 66.0781 20.6289C66.1641 21.082 66.2852 21.4766 66.4414 21.8125V22H63.5469C63.4141 21.6953 63.3086 21.3086 63.2305 20.8398C63.1602 20.3633 63.125 19.9023 63.125 19.457ZM63.5352 14.2891L63.5586 16.0352H61.5312C61.0078 16.0352 60.5469 16.0859 60.1484 16.1875C59.75 16.2812 59.418 16.4219 59.1523 16.6094C58.8867 16.7969 58.6875 17.0234 58.5547 17.2891C58.4219 17.5547 58.3555 17.8555 58.3555 18.1914C58.3555 18.5273 58.4336 18.8359 58.5898 19.1172C58.7461 19.3906 58.9727 19.6055 59.2695 19.7617C59.5742 19.918 59.9414 19.9961 60.3711 19.9961C60.9492 19.9961 61.4531 19.8789 61.8828 19.6445C62.3203 19.4023 62.6641 19.1094 62.9141 18.7656C63.1641 18.4141 63.2969 18.082 63.3125 17.7695L64.2266 19.0234C64.1328 19.3438 63.9727 19.6875 63.7461 20.0547C63.5195 20.4219 63.2227 20.7734 62.8555 21.1094C62.4961 21.4375 62.0625 21.707 61.5547 21.918C61.0547 22.1289 60.4766 22.2344 59.8203 22.2344C58.9922 22.2344 58.2539 22.0703 57.6055 21.7422C56.957 21.4062 56.4492 20.957 56.082 20.3945C55.7148 19.8242 55.5312 19.1797 55.5312 18.4609C55.5312 17.7891 55.6562 17.1953 55.9062 16.6797C56.1641 16.1562 56.5391 15.7188 57.0312 15.3672C57.5312 15.0156 58.1406 14.75 58.8594 14.5703C59.5781 14.3828 60.3984 14.2891 61.3203 14.2891H63.5352ZM74.7266 9.32031V11.3828H67.5781V9.32031H74.7266ZM69.6406 6.21484H72.4648V18.4961C72.4648 18.8867 72.5195 19.1875 72.6289 19.3984C72.7461 19.6016 72.9062 19.7383 73.1094 19.8086C73.3125 19.8789 73.5508 19.9141 73.8242 19.9141C74.0195 19.9141 74.207 19.9023 74.3867 19.8789C74.5664 19.8555 74.7109 19.832 74.8203 19.8086L74.832 21.9648C74.5977 22.0352 74.3242 22.0977 74.0117 22.1523C73.707 22.207 73.3555 22.2344 72.957 22.2344C72.3086 22.2344 71.7344 22.1211 71.2344 21.8945C70.7344 21.6602 70.3438 21.2812 70.0625 20.7578C69.7812 20.2344 69.6406 19.5391 69.6406 18.6719V6.21484ZM82.0859 19.9844C82.5469 19.9844 82.9609 19.8945 83.3281 19.7148C83.7031 19.5273 84.0039 19.2695 84.2305 18.9414C84.4648 18.6133 84.5938 18.2344 84.6172 17.8047H87.2773C87.2617 18.625 87.0195 19.3711 86.5508 20.043C86.082 20.7148 85.4609 21.25 84.6875 21.6484C83.9141 22.0391 83.0586 22.2344 82.1211 22.2344C81.1523 22.2344 80.3086 22.0703 79.5898 21.7422C78.8711 21.4062 78.2734 20.9453 77.7969 20.3594C77.3203 19.7734 76.9609 19.0977 76.7188 18.332C76.4844 17.5664 76.3672 16.7461 76.3672 15.8711V15.4609C76.3672 14.5859 76.4844 13.7656 76.7188 13C76.9609 12.2266 77.3203 11.5469 77.7969 10.9609C78.2734 10.375 78.8711 9.91797 79.5898 9.58984C80.3086 9.25391 81.1484 9.08594 82.1094 9.08594C83.125 9.08594 84.0156 9.28906 84.7812 9.69531C85.5469 10.0938 86.1484 10.6523 86.5859 11.3711C87.0312 12.082 87.2617 12.9102 87.2773 13.8555H84.6172C84.5938 13.3867 84.4766 12.9648 84.2656 12.5898C84.0625 12.207 83.7734 11.9023 83.3984 11.6758C83.0312 11.4492 82.5898 11.3359 82.0742 11.3359C81.5039 11.3359 81.0312 11.4531 80.6562 11.6875C80.2812 11.9141 79.9883 12.2266 79.7773 12.625C79.5664 13.0156 79.4141 13.457 79.3203 13.9492C79.2344 14.4336 79.1914 14.9375 79.1914 15.4609V15.8711C79.1914 16.3945 79.2344 16.9023 79.3203 17.3945C79.4062 17.8867 79.5547 18.3281 79.7656 18.7188C79.9844 19.1016 80.2812 19.4102 80.6562 19.6445C81.0312 19.8711 81.5078 19.9844 82.0859 19.9844ZM92.2344 4V22H89.4219V4H92.2344ZM91.7422 15.1914L90.8281 15.1797C90.8359 14.3047 90.957 13.4961 91.1914 12.7539C91.4336 12.0117 91.7695 11.3672 92.1992 10.8203C92.6367 10.2656 93.1602 9.83984 93.7695 9.54297C94.3789 9.23828 95.0547 9.08594 95.7969 9.08594C96.4219 9.08594 96.9844 9.17188 97.4844 9.34375C97.9922 9.51562 98.4297 9.79297 98.7969 10.1758C99.1641 10.5508 99.4414 11.043 99.6289 11.6523C99.8242 12.2539 99.9219 12.9883 99.9219 13.8555V22H97.0859V13.832C97.0859 13.2227 96.9961 12.7383 96.8164 12.3789C96.6445 12.0195 96.3906 11.7617 96.0547 11.6055C95.7188 11.4414 95.3086 11.3594 94.8242 11.3594C94.3164 11.3594 93.8672 11.4609 93.4766 11.6641C93.0938 11.8672 92.7734 12.1445 92.5156 12.4961C92.2578 12.8477 92.0625 13.2539 91.9297 13.7148C91.8047 14.1758 91.7422 14.668 91.7422 15.1914Z" fill="white" fill-opacity="0.8"/>
</svg>
